<svg xmlns="http://www.w3.org/2000/svg" viewBox="0 0 50 50"><defs><style>.cls-1{fill:#823d5f;}.cls-2{fill:#fff;}</style></defs><g id="Layer_2" data-name="Layer 2"><circle class="cls-1" cx="25" cy="25" r="25"/><path class="cls-2" d="M28,22a5.93,5.93,0,0,0-1.07-.86A6.35,6.35,0,0,0,19,22l-5.77,5.77a6.35,6.35,0,0,0,4.49,10.84,6.28,6.28,0,0,0,4.48-1.85L27,32a.49.49,0,0,0,.13-.33.45.45,0,0,0-.45-.45h-.19a7.6,7.6,0,0,1-2.9-.56.45.45,0,0,0-.49.1l-3.43,3.43a2.72,2.72,0,1,1-3.85-3.85l5.79-5.79a2.73,2.73,0,0,1,3.85,0,1.81,1.81,0,0,0,3.08-1.15A1.83,1.83,0,0,0,28,22Z"/><path class="cls-2" d="M36.75,13.25a6.35,6.35,0,0,0-9,0L23,18a.46.46,0,0,0-.1.5.47.47,0,0,0,.43.28h.17a7.61,7.61,0,0,1,2.9.57.47.47,0,0,0,.49-.1l3.42-3.42a2.73,2.73,0,1,1,3.85,3.86l-4.26,4.25,0,0-1.49,1.48a2.73,2.73,0,0,1-3.85,0,1.85,1.85,0,0,0-2.55,0,1.8,1.8,0,0,0-.52,1.16A1.75,1.75,0,0,0,22,28a6.44,6.44,0,0,0,1.82,1.28l.28.12.29.11.29.09.27.07a4.88,4.88,0,0,0,.55.12c.22,0,.45.05.68.06h.34l.27,0c.1,0,.21,0,.33,0h.15l.31,0,.15,0,.26-.05H28A6.37,6.37,0,0,0,31,28l5.78-5.78A6.35,6.35,0,0,0,36.75,13.25Z"/></g></svg>