<svg xmlns="http://www.w3.org/2000/svg" viewBox="0 0 50 50"><defs><style>.cls-1{fill:#bbd7dd;}.cls-2{fill:#fff;}</style></defs><g id="Layer_2" data-name="Layer 2"><circle class="cls-1" cx="25" cy="25" r="25"/><path class="cls-2" d="M24.94,40.35l-.26-.19L12,32.82a.46.46,0,0,1-.28-.47q0-7.38,0-14.77a.44.44,0,0,1,.26-.44L24.76,9.73a.41.41,0,0,1,.48,0l12.81,7.39a.47.47,0,0,1,.28.46q0,7.4,0,14.78a.46.46,0,0,1-.28.46L25.32,40.17c-.09,0-.17.12-.26.18Zm-11.44-21c0,.06,0,.08,0,.1q0,6,0,11.92c0,.2.1.26.24.34l10.15,5.86.24.11V25.83a.48.48,0,0,0-.29-.51l-10-5.79ZM25.9,37.74l.37-.2,10-5.76a.48.48,0,0,0,.28-.49V19.37l-.33.18q-5,2.89-10,5.78a.47.47,0,0,0-.27.47c0,3.86,0,7.73,0,11.59ZM35.59,17.8l-.3-.18-10-5.78a.53.53,0,0,0-.6,0l-10,5.81a2,2,0,0,0-.25.16l.32.19,10,5.78a.47.47,0,0,0,.54,0c3.36-2,6.72-3.88,10.08-5.82Z"/></g></svg>