<svg xmlns="http://www.w3.org/2000/svg" viewBox="0 0 50 50"><defs><style>.cls-1{fill:#d41a25;}.cls-2{fill:#fff;}</style></defs><g id="Layer_2" data-name="Layer 2"><circle class="cls-1" cx="25" cy="25" r="25"/><path class="cls-2" d="M18.86,13.91h.52a4.79,4.79,0,0,1,1.42.54l14.67,8.42a4.68,4.68,0,0,1,1,.74,1.86,1.86,0,0,1,.13,2.65,4,4,0,0,1-1.12.88q-7.32,4.2-14.65,8.39a4.29,4.29,0,0,1-1.13.47,1.87,1.87,0,0,1-2.36-1.21,4.08,4.08,0,0,1-.23-1.47q0-8.33,0-16.65a5.08,5.08,0,0,1,0-.67,2.5,2.5,0,0,1,.71-1.6A2.07,2.07,0,0,1,18.86,13.91Z"/></g></svg>