<svg xmlns="http://www.w3.org/2000/svg" viewBox="0 0 50 50"><defs><style>.cls-1{fill:#f79421;}.cls-2{fill:#fff;}</style></defs><g id="Layer_2" data-name="Layer 2"><circle class="cls-1" cx="25" cy="25" r="25"/><path class="cls-2" d="M22.1,38.51v-16A2.93,2.93,0,0,1,25,19.55h0A2.94,2.94,0,0,1,28,22.48v16A2.94,2.94,0,0,1,25,41.45h0A2.94,2.94,0,0,1,22.1,38.51Z"/><path class="cls-2" d="M28.64,12.22a3.48,3.48,0,0,1-3.74,3.61,3.5,3.5,0,0,1-3.54-3.61A3.59,3.59,0,0,1,25,8.55,3.5,3.5,0,0,1,28.64,12.22Z"/></g></svg>