<svg xmlns="http://www.w3.org/2000/svg" viewBox="0 0 50 50"><defs><style>.cls-1{fill:#0095a9;}.cls-2{fill:#fff;}</style></defs><g id="Layer_2" data-name="Layer 2"><circle class="cls-1" cx="25" cy="25" r="25"/><path class="cls-2" d="M36.22,39a3.33,3.33,0,0,1-1.74-1.08c-2.51-2.51-3.9-3.65-6.41-6.15a.36.36,0,0,0-.53-.08A10.65,10.65,0,0,1,21,33a11.05,11.05,0,0,1-9.71-12.32,10.77,10.77,0,0,1,3.71-7,10.46,10.46,0,0,1,5.51-2.57A10.79,10.79,0,0,1,31,15.33a10.53,10.53,0,0,1,2.27,6.94,10.85,10.85,0,0,1-1.9,5.95,2.2,2.2,0,0,1-.17.25,1.45,1.45,0,0,1,.29.19c2.58,2.55,4,3.75,6.59,6.3a2.3,2.3,0,0,1,.43,2.93,2.17,2.17,0,0,1-1.31,1l-.33.11Zm-14-24.08a7.12,7.12,0,1,0,7.11,7.14A7.12,7.12,0,0,0,22.21,14.92Z"/></g></svg>