<svg xmlns="http://www.w3.org/2000/svg" viewBox="0 0 50 50"><defs><style>.cls-1{fill:#f05a27;}.cls-2{fill:#fff;}</style></defs><g id="Layer_2" data-name="Layer 2"><circle class="cls-1" cx="25" cy="25" r="25"/><path class="cls-2" d="M8.07,20.33c.09-.37.15-.75.26-1.12a6.56,6.56,0,0,1,6.3-4.82q10.36,0,20.72,0A6.59,6.59,0,0,1,41.92,21c0,.82,0,1.65,0,2.48a1.32,1.32,0,1,1-2.64,0c0-.79,0-1.58,0-2.38a4,4,0,0,0-4-4H14.73a4,4,0,0,0-4,4q0,4.56,0,9.12a4,4,0,0,0,4,4h4.23A1.74,1.74,0,0,0,20.66,33c.15-.35.29-.7.45-1A4.36,4.36,0,0,1,29,32c.18.35.32.72.48,1.08a1.7,1.7,0,0,0,1.67,1.08h4.16a4,4,0,0,0,4-3.89,1.32,1.32,0,1,1,2.64,0,6.62,6.62,0,0,1-6.44,6.5c-1.48,0-3,0-4.46,0a4.22,4.22,0,0,1-3.85-2.46c-.19-.37-.34-.76-.52-1.14a1.71,1.71,0,0,0-3.18,0c-.17.38-.32.77-.51,1.14a4.24,4.24,0,0,1-3.87,2.45c-1.51,0-3,0-4.53,0a6.6,6.6,0,0,1-6.42-5.72.81.81,0,0,0-.07-.22Z"/><path class="cls-2" d="M17.67,20.6a4,4,0,1,1-4,4A4,4,0,0,1,17.67,20.6ZM19,24.55a1.32,1.32,0,1,0-1.31,1.34A1.33,1.33,0,0,0,19,24.55Z"/><path class="cls-2" d="M28.37,24.57a4,4,0,1,1,4,4A4,4,0,0,1,28.37,24.57Zm4,1.32a1.33,1.33,0,0,0,0-2.65,1.33,1.33,0,0,0,0,2.65Z"/></g></svg>