<svg width="42" height="42" viewBox="0 0 42 42" fill="none" xmlns="http://www.w3.org/2000/svg">
<path d="M27 32.1429L16.081 21L27 9.85714L24.86 8L12 21L24.86 34L27 32.1429Z" fill="white"/>
<circle cx="21" cy="21" r="21" fill="#575757"/>
<path d="M31.9046 10.8488L31.0563 11.697L29.3178 9.99211L30.166 9.13545C30.334 8.95907 30.6196 8.95068 30.8211 9.13545L31.9046 10.1853C32.0809 10.3617 32.0893 10.6472 31.9046 10.8488ZM25.32 13.9647L28.8223 10.4456L30.5608 12.1926L27.0669 15.72H25.32V13.9647Z" fill="white"/>
<path fill-rule="evenodd" clip-rule="evenodd" d="M25.32 9H11.304C10.6929 9 10.1069 9.25286 9.67483 9.70294C9.24274 10.153 9 10.7635 9 11.4V33L13.608 28.2H29.736C30.3471 28.2 30.9331 27.9471 31.3652 27.4971C31.7973 27.047 32.04 26.4365 32.04 25.8V16H29.736V25.8H12.6864L11.304 27.24V11.4H25.32V9Z" fill="white"/>
<line x1="13.8" y1="18.56" x2="27.24" y2="18.56" stroke="white" stroke-width="2"/>
<line x1="13.8" y1="14.72" x2="22.44" y2="14.72" stroke="white" stroke-width="2"/>
<line x1="13.8" y1="22.4" x2="27.24" y2="22.4" stroke="white" stroke-width="2"/>
</svg>
