<svg xmlns="http://www.w3.org/2000/svg" viewBox="0 0 50 50"><defs><style>.cls-1{fill:#68757f;}.cls-2{fill:#fff;}</style></defs><g id="Layer_2" data-name="Layer 2"><circle class="cls-1" cx="25" cy="25" r="25"/><path class="cls-2" d="M15.68,41.52a6.3,6.3,0,0,1-.77-.25,2.83,2.83,0,0,1-1.77-2.7c0-2.12,0-4.24,0-6.36v-21A3,3,0,0,1,16.29,8.1H29.53a1.5,1.5,0,0,1,1.13.47q3.73,3.76,7.5,7.5a1.43,1.43,0,0,1,.44,1.07q0,10.58,0,21.15a3,3,0,0,1-2.49,3.21s0,0-.05,0ZM28.8,10.05H16.26c-.81,0-1.17.37-1.17,1.18V38.39c0,.81.37,1.17,1.18,1.17H35.46c.81,0,1.17-.37,1.17-1.17V17.89h-.4c-1.5,0-3,0-4.5,0a2.91,2.91,0,0,1-2.88-2.44,6,6,0,0,1-.05-.85Zm2,1.47c0,1.16,0,2.3,0,3.44a1,1,0,0,0,1,1H35l.12,0Z"/><path class="cls-2" d="M25.86,21.94c1.94,0,3.87,0,5.81,0a1,1,0,0,1,.94,1.41,1,1,0,0,1-1,.54H20.07a1,1,0,0,1-1-1.36,1,1,0,0,1,1-.6Z"/><path class="cls-2" d="M25.9,25.85h5.77a1,1,0,1,1,0,2H20.07a1,1,0,0,1-1-1.37,1,1,0,0,1,1-.59Z"/><path class="cls-2" d="M25.83,31.73H20.06a1,1,0,1,1,0-2h11.6a1,1,0,0,1,.94,1.4,1,1,0,0,1-1,.56Z"/><path class="cls-2" d="M23.91,35.64H20.09a1,1,0,1,1,0-2h7.7a1,1,0,1,1,0,2Z"/></g></svg>