<svg xmlns="http://www.w3.org/2000/svg" viewBox="0 0 50 50"><defs><style>.cls-1{fill:#e6831d;}.cls-2{fill:#fff;}</style></defs><g id="Layer_2" data-name="Layer 2"><circle class="cls-1" cx="25" cy="25" r="25"/><path class="cls-2" d="M34.11,38H31.92l1.92,4.79h4.92ZM15.89,38l-4.65,4.79h4.92L18.08,38Zm3.71-8V28H13.89v2.33h5.34a.37.37,0,0,0,.37-.37m16.51,0V28H30.4v2.34h5.34a.36.36,0,0,0,.37-.37m-15-7.41V12.32a.61.61,0,0,0-.68-.64H16a.74.74,0,0,0-.78.66s-.55,3.06-.82,5.16-.53,5.22-.53,5.22c0,.4.18.65.69.65h5.67c.61,0,.81-.3.81-.86m15.05.21s-.26-3.12-.53-5.22-.82-5.16-.82-5.16a.74.74,0,0,0-.78-.66H29.62a.61.61,0,0,0-.68.64V22.51c0,.56.2.86.8.86h5.68c.52,0,.69-.25.69-.65m2.62,3.39H11.27a70.85,70.85,0,0,1,1.55-13.84c.33-1.77,1-2.75,3.81-3.4A16.34,16.34,0,0,1,19,8.7H31a16.34,16.34,0,0,1,2.39.17c2.83.65,3.48,1.63,3.81,3.4a70.34,70.34,0,0,1,1.55,14.17m-27.46.36H38.73c0,.84-.21,3.51-1.69,4.61,0,0-.15.08-.54.09h-23c-.39,0-.5-.06-.54-.09-1.48-1.1-1.67-3.77-1.69-4.61M39,11c-.38-2-1.19-3.05-4.37-4a32.19,32.19,0,0,0-9.23-1.35h-.7a32.14,32.14,0,0,0-9.23,1.35c-3.18,1-4,2-4.37,4C8.29,25.41,9.57,30.52,9.57,30.52A17.57,17.57,0,0,0,11.2,36a2,2,0,0,0,1.41.85H37.39A2,2,0,0,0,38.8,36a17.57,17.57,0,0,0,1.63-5.51S41.71,25.41,39,11"/></g></svg>