<svg xmlns="http://www.w3.org/2000/svg" viewBox="0 0 50 50"><defs><style>.cls-1{fill:#823d5f;}.cls-2{fill:#fff;}</style></defs><g id="Layer_2" data-name="Layer 2"><circle class="cls-1" cx="25" cy="25" r="25"/><path class="cls-2" d="M40.16,15.25a2.18,2.18,0,0,0-2.23-1.86,28,28,0,0,0-3,.24A22.58,22.58,0,0,0,24.38,18.1V18A11.17,11.17,0,0,0,19,10.27a2.1,2.1,0,0,0-2.72.38,14.39,14.39,0,0,0-3.93,8.94,14.54,14.54,0,0,0,3.8,11.07s0,0,0,.11c-.16.75-.31,1.51-.44,2.27a1.19,1.19,0,1,0,2.34.43,1.48,1.48,0,0,0,0-.19,17.67,17.67,0,0,1,1.65-5.59c3.72-7.44,9.78-11.45,18-11.91h.1a.25.25,0,0,0,0,.08c0,.39.07.79.11,1.19.1,1.11.21,2.26.21,3.38a23.46,23.46,0,0,1-.37,4.82A13.53,13.53,0,0,1,31,34.39,13.93,13.93,0,0,1,21.68,36a33.92,33.92,0,0,0,8.25-8.31c.52-.75,1-1.53,1.46-2.29l.13-.21a1.16,1.16,0,0,0-.36-1.65,1.18,1.18,0,0,0-1.67.42l-.19.31-.08.15A31.94,31.94,0,0,1,17.31,35.92c-.86.48-1.78.9-2.68,1.31l-1.14.52a1.38,1.38,0,0,0-.77.79,1.17,1.17,0,0,0,.1.91,1.13,1.13,0,0,0,1,.62,1.33,1.33,0,0,0,.6-.15l2.12-1,2.21-1a.44.44,0,0,1,.25,0,16.61,16.61,0,0,0,8.51.39A16.37,16.37,0,0,0,40.33,24.6,32.58,32.58,0,0,0,40.16,15.25ZM18,16.12a1.17,1.17,0,0,0-.92,1.42l.21,1.17c.11.6.22,1.21.32,1.82a26.76,26.76,0,0,1,.17,5.6L17,28a12.35,12.35,0,0,1,.87-15.53l.06-.05s0,0,0,0A8.8,8.8,0,0,1,22.17,20l-2,2.27a34.88,34.88,0,0,0-.75-5.11A1.2,1.2,0,0,0,18,16.12Z"/></g></svg>