<svg xmlns="http://www.w3.org/2000/svg" viewBox="0 0 50 50"><defs><style>.cls-1{fill:#823d5f;}.cls-2{fill:#fff;}</style></defs><g id="Layer_2" data-name="Layer 2"><circle class="cls-1" cx="25" cy="25" r="25"/><path class="cls-2" d="M7.11,22.63a6.65,6.65,0,0,1,.61-.79Q14.49,15,21.28,8.27a5.17,5.17,0,0,1,7-.42,8.09,8.09,0,0,1,.61.57L42.34,21.88l.22.23A1.11,1.11,0,1,1,41,23.69c-.28-.27-.53-.55-.8-.83l-.09,0v14a3.19,3.19,0,0,1-2.22,3.14,3.51,3.51,0,0,1-1.07.16H13.19A3.21,3.21,0,0,1,9.9,37V22.82l-.66.65c-.84.84-1.56.75-2.13-.28ZM30.59,38h6.07c.85,0,1.2-.36,1.2-1.22q0-8,0-15.9a.7.7,0,0,0-.22-.54L27.21,9.92a2.94,2.94,0,0,0-4.42,0L12.36,20.35a.7.7,0,0,0-.23.54q0,8,0,15.94c0,.81.36,1.18,1.17,1.18h6.1V29.32A3.49,3.49,0,0,1,23,25.71c1.28,0,2.56,0,3.84,0a3.5,3.5,0,0,1,3.72,3.71V38Zm-8.94,0h6.69a1,1,0,0,0,0-.16q0-4.29,0-8.59A1.25,1.25,0,0,0,27,27.94h-4a1.27,1.27,0,0,0-1.41,1.43c0,2.19,0,4.38,0,6.57Z"/></g></svg>