<?xml version="1.0" encoding="utf-8"?>
<!-- Generator: Adobe Illustrator 24.2.3, SVG Export Plug-In . SVG Version: 6.00 Build 0)  -->
<svg version="1.1" xmlns="http://www.w3.org/2000/svg" xmlns:xlink="http://www.w3.org/1999/xlink" x="0px" y="0px"
	 viewBox="0 0 40 40" style="enable-background:new 0 0 40 40;" xml:space="preserve">
<style type="text/css">
	.st0{display:none;}
	.st1{display:inline;}
	.st2{fill:#36A9E1;}
	.st3{fill:#FFFFFF;}
	.st4{fill:#3FB498;}
	.st5{fill:#E4003A;}
</style>
<g id="_x31_" class="st0">
	<g class="st1">
		<g>
			<circle class="st2" cx="20" cy="20" r="20"/>
		</g>
		<path class="st3" d="M25.14,22.28c0.79-1.25,1.25-2.7,1.25-4.27c0-4.44-3.59-8.03-8.03-8.03s-8.03,3.59-8.03,8.03
			s3.59,8.03,8.02,8.03c1.57,0,3.03-0.46,4.27-1.25l5.57,5.57l2.53-2.53L25.14,22.28z M18.36,22.48c-2.46,0-4.46-2-4.46-4.46
			s2-4.46,4.46-4.46s4.46,2,4.46,4.46S20.82,22.48,18.36,22.48z"/>
	</g>
</g>
<g id="_x32_" class="st0">
	<g class="st1">
		<circle class="st4" cx="20" cy="20" r="20"/>
		<path class="st3" d="M29.91,13.08c0-1.1-0.89-2-1.99-2h-16c-1.1,0-2,0.9-2,2v12c0,1.1,0.9,2,2,2h14l4,4L29.91,13.08z M24.92,20.08
			h-4v4h-2v-4h-4v-2h4v-4h2v4h4V20.08z"/>
	</g>
</g>
<g id="_x33_" class="st0">
	<g class="st1">
		<circle class="st5" cx="20" cy="20" r="20"/>
		<path class="st3" d="M27,11h-4.18C22.4,9.84,21.3,9,20,9c-1.3,0-2.4,0.84-2.82,2H13c-1.1,0-2,0.9-2,2v14c0,1.1,0.9,2,2,2h14
			c1.1,0,2-0.9,2-2V13C29,11.9,28.1,11,27,11z M20,11c0.55,0,1,0.45,1,1s-0.45,1-1,1c-0.55,0-1-0.45-1-1S19.45,11,20,11z M22,25h-7
			v-2h7V25z M25,21H15v-2h10V21z M25,17H15v-2h10V17z"/>
	</g>
</g>
<g id="_x34_" class="st0">
	<g class="st1">
		<circle class="st2" cx="20" cy="20" r="20"/>
		<g>
			<g>
				<path class="st3" d="M29,12c-1.11-0.35-2.33-0.5-3.5-0.5c-1.95,0-4.05,0.4-5.5,1.5c-1.45-1.1-3.55-1.5-5.5-1.5S10.45,11.9,9,13
					v14.65c0,0.25,0.25,0.5,0.5,0.5c0.1,0,0.15-0.05,0.25-0.05c1.35-0.65,3.3-1.1,4.75-1.1c1.95,0,4.05,0.4,5.5,1.5
					c1.35-0.85,3.8-1.5,5.5-1.5c1.65,0,3.35,0.3,4.75,1.05c0.1,0.05,0.15,0.05,0.25,0.05c0.25,0,0.5-0.25,0.5-0.5V13
					C30.4,12.55,29.75,12.25,29,12z M29,25.5c-1.1-0.35-2.3-0.5-3.5-0.5c-1.7,0-4.15,0.65-5.5,1.5V15c1.35-0.85,3.8-1.5,5.5-1.5
					c1.2,0,2.4,0.15,3.5,0.5V25.5z"/>
				<g>
					<path class="st3" d="M25.5,17.5c0.88,0,1.73,0.09,2.5,0.26v-1.52C27.21,16.09,26.36,16,25.5,16c-1.7,0-3.24,0.29-4.5,0.83v1.66
						C22.13,17.85,23.7,17.5,25.5,17.5z"/>
					<path class="st3" d="M21,19.49v1.66c1.13-0.64,2.7-0.99,4.5-0.99c0.88,0,1.73,0.09,2.5,0.26V18.9
						c-0.79-0.15-1.64-0.24-2.5-0.24C23.8,18.66,22.26,18.96,21,19.49z"/>
					<path class="st3" d="M25.5,21.33c-1.7,0-3.24,0.29-4.5,0.83v1.66c1.13-0.64,2.7-0.99,4.5-0.99c0.88,0,1.73,0.09,2.5,0.26v-1.52
						C27.21,21.41,26.36,21.33,25.5,21.33z"/>
				</g>
			</g>
		</g>
	</g>
</g>
<g id="_x35_" class="st0">
	<g class="st1">
		<circle class="st2" cx="20" cy="20" r="20"/>
		<path class="st3" d="M27,17.5h-4v-6h-6v6h-4l7,7L27,17.5z M13,26.5v2h14v-2H13z"/>
	</g>
</g>
<g id="_x36_" class="st0">
	<g class="st1">
		<circle class="st5" cx="20" cy="20" r="20"/>
		<path class="st3" d="M22,30h-4V18h4V30z M22,14h-4v-4h4V14z"/>
	</g>
</g>
<g id="_x37_" class="st0">
	<g class="st1">
		<circle class="st5" cx="20" cy="20" r="20"/>
		<path class="st3" d="M27,17.5h-4v-6h-6v6h-4l7,7L27,17.5z M13,26.5v2h14v-2H13z"/>
	</g>
</g>
<g id="_x38_">
	<g>
		<circle class="st5" cx="20" cy="20" r="20"/>
		<path class="st3" d="M17.78,18.73l-1.42,1.42c-0.68-0.69-1.34-1.58-1.79-2.94l1.94-0.49C16.83,17.61,17.28,18.22,17.78,18.73z
			 M19,13.57l-4-4l-4,4h3.02c0.02,0.81,0.08,1.54,0.19,2.17l1.94-0.49c-0.07-0.48-0.12-1.05-0.13-1.68H19z M29,13.57l-4-4l-4,4h2.99
			c-0.1,3.68-1.28,4.75-2.54,5.88c-0.5,0.44-1.01,0.92-1.45,1.55c-0.34-0.49-0.73-0.88-1.13-1.24l-1.41,1.41
			c0.93,0.85,1.54,1.54,1.54,3.4l0,0l0,0v5h2v-5l0,0c0-2.02,0.71-2.66,1.79-3.63c1.38-1.24,3.08-2.78,3.2-7.37H29z"/>
	</g>
</g>
<g id="_x39_" class="st0">
	<g class="st1">
		<circle class="st5" cx="20" cy="20" r="20"/>
		<path class="st3" d="M26,15.58c0-3.31-2.69-6-6-6s-6,2.69-6,6c0,4.5,6,11,6,11S26,20.08,26,15.58z M18,15.58c0-1.1,0.9-2,2-2
			s2,0.9,2,2s-0.89,2-2,2C18.9,17.58,18,16.68,18,15.58z M13,27.58v2h14v-2H13z"/>
	</g>
</g>
<g id="_x31_0" class="st0">
	<g class="st1">
		<g>
			<g>
				<circle class="st5" cx="20" cy="20" r="20"/>
			</g>
		</g>
		<path class="st3" d="M28.5,11l-0.16,0.03L23,13.1L17,11l-5.64,1.9C11.15,12.97,11,13.15,11,13.38V28.5c0,0.28,0.22,0.5,0.5,0.5
			l0.16-0.03L17,26.9l6,2.1l5.64-1.9c0.21-0.07,0.36-0.25,0.36-0.48V11.5C29,11.22,28.78,11,28.5,11z M23,27l-6-2.11V13l6,2.11V27z"
			/>
	</g>
</g>
</svg>
