<svg id="Layer_2" data-name="Layer 2" xmlns="http://www.w3.org/2000/svg" viewBox="0 0 40 40"><defs><style>.cls-1{fill:#565557;}.cls-2{fill:#fff;}</style></defs><circle class="cls-1" cx="20" cy="20" r="20"/><path class="cls-2" d="M17.74,25.3c.6-.69,1.21-1.31,1.72-2a11.69,11.69,0,0,0,.69-1.37c.41-.76.82-1.53,1.29-2.25A6.75,6.75,0,0,1,25,16.94a3,3,0,0,1,3.86,3.87,10.54,10.54,0,0,1-1.55,2.83,11.4,11.4,0,0,1-3.2,2.95c-1.13.73-2.34,1.36-3.52,2-.1.05-.18.1-.28,0l-2.57-3.27Z"/><path class="cls-2" d="M17,19l-3.79-2.25c.34-.85.66-1.69,1-2.52a15.32,15.32,0,0,1,2.32-4A10.06,10.06,0,0,1,20,7.36a3,3,0,0,1,2.64-.09,3.06,3.06,0,0,1,1.68,3.35A8.21,8.21,0,0,1,23.4,13,10.17,10.17,0,0,1,21,15.45a8.56,8.56,0,0,1-1.26.83,6.27,6.27,0,0,0-2.05,1.81C17.48,18.38,17.26,18.66,17,19Z"/><path class="cls-2" d="M12.05,18.7l4,2.32a20.53,20.53,0,0,1-1.57,3.19,5.33,5.33,0,0,1-.72.78,1.6,1.6,0,0,1-1.66.31,3.43,3.43,0,0,1-1.57-.92,2,2,0,0,1-.51-1.83A6.85,6.85,0,0,1,10.68,21C11.09,20.21,11.58,19.48,12.05,18.7Z"/><path class="cls-2" d="M15.82,26.48l2.79,3.68a15.73,15.73,0,0,1-2.91,2.25,2.29,2.29,0,0,1-3.09-.62,4.66,4.66,0,0,1-.47-.77,1.68,1.68,0,0,1,.2-1.92,10.79,10.79,0,0,1,1-1,3,3,0,0,1,.49-.36Z"/></svg>