<svg width="42" height="42" viewBox="0 0 42 42" fill="none" xmlns="http://www.w3.org/2000/svg">
<circle cx="21" cy="21" r="21" fill="#575757"/>
<path d="M24.2 9H9.8C9.32261 9 8.86477 9.17911 8.52721 9.49792C8.18964 9.81673 8 10.2491 8 10.7V26L11.6 22.6H24.2C24.6774 22.6 25.1352 22.4209 25.4728 22.1021C25.8104 21.7833 26 21.3509 26 20.9V10.7C26 10.2491 25.8104 9.81673 25.4728 9.49792C25.1352 9.17911 24.6774 9 24.2 9ZM24.2 20.9H11.6L9.8 22.6V10.7H24.2" fill="white"/>
<path d="M17.8 15H32.2C32.6774 15 33.1352 15.1896 33.4728 15.5272C33.8104 15.8648 34 16.3226 34 16.8V33L30.4 29.4H17.8C17.3226 29.4 16.8648 29.2104 16.5272 28.8728C16.1896 28.5352 16 28.0774 16 27.6V16.8C16 15.801 16.81 15 17.8 15Z" fill="white"/>
<rect x="20" y="21" width="2" height="2" fill="#575757"/>
<rect x="24" y="21" width="2" height="2" fill="#575757"/>
<rect x="28" y="21" width="2" height="2" fill="#575757"/>
</svg>
