<svg xmlns="http://www.w3.org/2000/svg" viewBox="0 0 50 50"><defs><style>.cls-1{fill:#575757;}.cls-2{fill:#fff;}</style></defs><g id="Layer_2" data-name="Layer 2"><circle class="cls-1" cx="25" cy="25" r="25"/><path class="cls-2" d="M37.68,40.91h-.44a6.65,6.65,0,0,1-.65-.51c-1.53-1.52-3-3-4.55-4.56a.62.62,0,0,0-.48-.2H16.62c-.71,0-1.42,0-2.13,0a4.25,4.25,0,0,1-3.77-2.47,9.3,9.3,0,0,1-.46-1.41v-15s.05-.06.05-.09a4.44,4.44,0,0,1,4.51-3.81c6.33,0,12.66,0,19,0a5.13,5.13,0,0,1,1.56.24,4.34,4.34,0,0,1,3,4.25q0,11.2,0,22.41A1.09,1.09,0,0,1,37.68,40.91Zm-1.09-3V17.42a2.81,2.81,0,0,0-.53-1.75,2.62,2.62,0,0,0-2.23-1.07h-19A2.63,2.63,0,0,0,12,17.33V31.17a2.64,2.64,0,0,0,2.8,2.72H32a1.25,1.25,0,0,1,1,.39q1.68,1.69,3.37,3.38Z"/><path class="cls-2" d="M31.81,23h-15a1.07,1.07,0,1,1,0-2.14h15a1.07,1.07,0,1,1,0,2.14Z"/><path class="cls-2" d="M31.81,28.06h-15a1.07,1.07,0,1,1,0-2.13h15a1.07,1.07,0,1,1,0,2.13Z"/></g></svg>