<svg xmlns="http://www.w3.org/2000/svg" viewBox="0 0 50 50"><defs><style>.cls-1{fill:#575757;}.cls-2{fill:#fff;}</style></defs><g id="Layer_2" data-name="Layer 2"><circle class="cls-1" cx="25" cy="25" r="25"/><path class="cls-2" d="M18.52,14.5a15.2,15.2,0,0,0-1.94-2.74l1.92-.71a19.28,19.28,0,0,1,2,3.45H28.2v1.9H25.11a20.27,20.27,0,0,1-4.31,7.72A18.51,18.51,0,0,0,27.25,28L26.18,29.6a19,19,0,0,1-6.71-4.12A21.59,21.59,0,0,1,11.05,30l-1-1.7a19.9,19.9,0,0,0,8.1-4,18,18,0,0,1-4.65-7.84H10.38V14.5Zm.93,8.43c.21-.23.41-.47.61-.71a17.78,17.78,0,0,0,3.07-5.82H15.31A16.29,16.29,0,0,0,19.45,22.93Z"/><path class="cls-2" d="M33.34,24.32l5.07,13.16H36.26L35,34.09H29.36l-1.23,3.39H26l5.07-13.16Zm1.07,8.11-2.17-5.95h-.08L30,32.43Z"/></g></svg>