<svg xmlns="http://www.w3.org/2000/svg" viewBox="0 0 50 50"><defs><style>.cls-1{fill:#575757;}.cls-2{fill:gray;}</style></defs><g id="Layer_2" data-name="Layer 2"><circle class="cls-1" cx="25" cy="25" r="25"/><path d="M13.64,38.69c-.21-.09-.43-.17-.64-.27A4.32,4.32,0,0,1,10.43,35,3.07,3.07,0,0,1,12,31.67a5,5,0,0,1,2.3-.76,3.89,3.89,0,0,1,2.41.54l.23.14V17.31c0-.68.12-.84.76-1l15.77-4.24a1.38,1.38,0,0,1,.67,0,1,1,0,0,1,.69,1v6.59c0,3.65,0,7.31,0,11a3.22,3.22,0,0,1-2.08,3.3,4.81,4.81,0,0,1-2.07.53,4.87,4.87,0,0,1-4.34-3.81,3.19,3.19,0,0,1,1.89-3.58c.28-.12.56-.26.85-.37a4.34,4.34,0,0,1,3.71.56l.28.18V16.79l-.23,0-13.9,3.74c-.22.05-.27.16-.27.38,0,3.78,0,10.55,0,14.33a3,3,0,0,1-1.71,2.82,5.48,5.48,0,0,1-2.35.72Z"/><polygon points="34.64 12.42 35.87 13.91 33.88 13.81 34.64 12.42"/><path class="cls-2" d="M15.31,39.68c-.21-.09-.42-.16-.62-.26a4.21,4.21,0,0,1-2.52-3.32,3,3,0,0,1,1.53-3.29A4.82,4.82,0,0,1,16,32.06a4,4,0,0,1,2.36.72l.22.14V18.74c0-.68.12-.83.74-1l15.46-4.16a1.3,1.3,0,0,1,.65,0,1,1,0,0,1,.68,1V21c0,3.58,0,7.15,0,10.74A3.16,3.16,0,0,1,34,35a4.84,4.84,0,0,1-2,.52,4.4,4.4,0,0,1-4-3.63,3.15,3.15,0,0,1,1.85-3.51c.28-.12.55-.25.84-.36a3.68,3.68,0,0,1,3.37.44l.56.37V18.41c-.07,0-.43-.17-.51-.15L20.49,21.92c-.22.06-.26.17-.27.38,0,3.7,0,10.34,0,14a2.89,2.89,0,0,1-1.67,2.76,5.34,5.34,0,0,1-2.31.71Z"/></g></svg>