<svg xmlns="http://www.w3.org/2000/svg" viewBox="0 0 50 50"><defs><style>.cls-1{fill:#575757;}.cls-2{fill:#fff;}</style></defs><g id="Layer_2" data-name="Layer 2"><circle class="cls-1" cx="25" cy="25" r="25"/><path class="cls-2" d="M14.31,38.68c-.21-.09-.42-.16-.62-.26a4.23,4.23,0,0,1-2.52-3.31,3,3,0,0,1,1.53-3.3A4.82,4.82,0,0,1,15,31.06a4,4,0,0,1,2.36.72l.22.14V17.74c0-.67.12-.83.75-1l15.45-4.16a1.3,1.3,0,0,1,.65,0,1,1,0,0,1,.68,1V20c0,3.58,0,7.16,0,10.74A3.16,3.16,0,0,1,33,34a4.81,4.81,0,0,1-2,.52,4.4,4.4,0,0,1-4-3.63,3.15,3.15,0,0,1,1.85-3.51c.28-.12.55-.25.84-.36a3.71,3.71,0,0,1,3.37.44l.56.37V17.41c-.07,0-.43-.16-.5-.14L19.49,20.93c-.21.05-.26.16-.26.37,0,3.7,0,10.34,0,14a2.89,2.89,0,0,1-1.67,2.76,5.34,5.34,0,0,1-2.3.71Z"/></g></svg>