<svg width="42" height="42" viewBox="0 0 42 42" fill="none" xmlns="http://www.w3.org/2000/svg">
<circle cx="21" cy="21" r="21" fill="#4EC0EB"/>
<path d="M31.8333 9.58334H11.1667C9.74584 9.58334 8.58334 10.7458 8.58334 12.1667V27.6667C8.58334 29.0875 9.74584 30.25 11.1667 30.25H16.3333V34.125C16.3333 34.9 16.85 35.4167 17.625 35.4167H18.2708C18.5292 35.4167 18.9167 35.2875 19.175 35.0292L23.9542 30.25H31.8333C33.2542 30.25 34.4167 29.0875 34.4167 27.6667V12.1667C34.4167 10.7458 33.2542 9.58334 31.8333 9.58334ZM31.8333 27.6667H22.9208L18.9167 31.6708V27.6667H11.1667V12.1667H31.8333V27.6667ZM16.3333 18.625V21.2083H22.1458L19.8208 23.5333L21.5 25.0833L26.6667 19.9167L21.5 14.75L19.95 16.3L22.1458 18.625H16.3333Z" fill="white"/>
</svg>
