<svg width="42" height="42" viewBox="0 0 42 42" fill="none" xmlns="http://www.w3.org/2000/svg">
<circle r="21" transform="matrix(-1 0 0 1 21 21)" fill="#42D56B"/>
<path d="M23.6667 9V11.6667H28.4533L15.3467 24.7733L17.2267 26.6533L30.3333 13.5467V18.3333H33V9H23.6667ZM30.3333 30.3333H11.6667V11.6667H21V9H11.6667C10.1867 9 9 10.2 9 11.6667V30.3333C9 31.0406 9.28095 31.7189 9.78105 32.219C10.2811 32.719 10.9594 33 11.6667 33H30.3333C31.0406 33 31.7189 32.719 32.219 32.219C32.719 31.7189 33 31.0406 33 30.3333V21H30.3333V30.3333Z" fill="white"/>
</svg>
