<svg width="591" height="188" viewBox="0 0 591 188" fill="none" xmlns="http://www.w3.org/2000/svg">
<rect width="591" height="188" fill="white"/>
<path d="M20.4167 6H571.583C576.246 6 580 9.68773 580 14.2685V173.732C580 178.312 576.246 182 571.583 182H20.4167C15.7539 182 12 178.312 12 173.732V14.2685C12 9.68773 15.7539 6 20.4167 6V6Z" stroke="#9B9B9B" stroke-width="1.5" stroke-linecap="square"/>
<path d="M482.5 27H497.5C500.27 27 502.5 29.23 502.5 32V47C502.5 49.77 500.27 52 497.5 52H482.5C479.73 52 477.5 49.77 477.5 47V32C477.5 29.23 479.73 27 482.5 27Z" stroke="#767676" stroke-width="1.5" stroke-linecap="square"/>
<path d="M510.5 27H525.5C528.27 27 530.5 29.23 530.5 32V47C530.5 49.77 528.27 52 525.5 52H510.5C507.73 52 505.5 49.77 505.5 47V32C505.5 29.23 507.73 27 510.5 27Z" stroke="#767676" stroke-width="1.5" stroke-linecap="square"/>
<path d="M538.5 27H553.5C556.27 27 558.5 29.23 558.5 32V47C558.5 49.77 556.27 52 553.5 52H538.5C535.73 52 533.5 49.77 533.5 47V32C533.5 29.23 535.73 27 538.5 27Z" stroke="#767676" stroke-width="1.5" stroke-linecap="square"/>
<path d="M482.5 55H497.5C500.27 55 502.5 57.23 502.5 60V75C502.5 77.77 500.27 80 497.5 80H482.5C479.73 80 477.5 77.77 477.5 75V60C477.5 57.23 479.73 55 482.5 55Z" stroke="#767676" stroke-width="1.5" stroke-linecap="square"/>
<path d="M510.5 55H525.5C528.27 55 530.5 57.23 530.5 60V75C530.5 77.77 528.27 80 525.5 80H510.5C507.73 80 505.5 77.77 505.5 75V60C505.5 57.23 507.73 55 510.5 55Z" stroke="#767676" stroke-width="1.5" stroke-linecap="square"/>
<path d="M538.5 55H553.5C556.27 55 558.5 57.23 558.5 60V75C558.5 77.77 556.27 80 553.5 80H538.5C535.73 80 533.5 77.77 533.5 75V60C533.5 57.23 535.73 55 538.5 55Z" stroke="#767676" stroke-width="1.5" stroke-linecap="square"/>
<path d="M510.5 111H525.5C528.27 111 530.5 113.23 530.5 116V131C530.5 133.77 528.27 136 525.5 136H510.5C507.73 136 505.5 133.77 505.5 131V116C505.5 113.23 507.73 111 510.5 111Z" stroke="#767676" stroke-width="1.5" stroke-linecap="square"/>
<path d="M482.5 139H497.5C500.27 139 502.5 141.23 502.5 144V159C502.5 161.77 500.27 164 497.5 164H482.5C479.73 164 477.5 161.77 477.5 159V144C477.5 141.23 479.73 139 482.5 139Z" fill="#7CD4F2" stroke="#353535" stroke-width="1.5" stroke-linecap="square"/>
<path d="M510.5 139H525.5C528.27 139 530.5 141.23 530.5 144V159C530.5 161.77 528.27 164 525.5 164H510.5C507.73 164 505.5 161.77 505.5 159V144C505.5 141.23 507.73 139 510.5 139Z" stroke="#767676" stroke-width="1.5" stroke-linecap="square"/>
<path d="M538.5 139H553.5C556.27 139 558.5 141.23 558.5 144V159C558.5 161.77 556.27 164 553.5 164H538.5C535.73 164 533.5 161.77 533.5 159V144C533.5 141.23 535.73 139 538.5 139Z" fill="#7CD4F2" stroke="#353535" stroke-width="1.5" stroke-linecap="square"/>
<path d="M44.5 27H59.5C62.27 27 64.5 29.23 64.5 32V47C64.5 49.77 62.27 52 59.5 52H44.5C41.73 52 39.5 49.77 39.5 47V32C39.5 29.23 41.73 27 44.5 27Z" fill="#FF9494" stroke="#353535" stroke-width="1.5" stroke-linecap="square"/>
<path d="M72.5 27H87.5C90.27 27 92.5 29.23 92.5 32V47C92.5 49.77 90.27 52 87.5 52H72.5C69.73 52 67.5 49.77 67.5 47V32C67.5 29.23 69.73 27 72.5 27V27Z" stroke="#767676" stroke-width="1.5" stroke-linecap="square"/>
<path d="M100.5 27H115.5C118.27 27 120.5 29.23 120.5 32V47C120.5 49.77 118.27 52 115.5 52H100.5C97.73 52 95.5 49.77 95.5 47V32C95.5 29.23 97.73 27 100.5 27Z" stroke="#767676" stroke-width="1.5" stroke-linecap="square"/>
<path d="M128.5 27H143.5C146.27 27 148.5 29.23 148.5 32V47C148.5 49.77 146.27 52 143.5 52H128.5C125.73 52 123.5 49.77 123.5 47V32C123.5 29.23 125.73 27 128.5 27Z" stroke="#767676" stroke-width="1.5" stroke-linecap="square"/>
<path d="M156.5 27H171.5C174.27 27 176.5 29.23 176.5 32V47C176.5 49.77 174.27 52 171.5 52H156.5C153.73 52 151.5 49.77 151.5 47V32C151.5 29.23 153.73 27 156.5 27Z" stroke="#767676" stroke-width="1.5" stroke-linecap="square"/>
<path d="M184.5 27H199.5C202.27 27 204.5 29.23 204.5 32V47C204.5 49.77 202.27 52 199.5 52H184.5C181.73 52 179.5 49.77 179.5 47V32C179.5 29.23 181.73 27 184.5 27Z" stroke="#767676" stroke-width="1.5" stroke-linecap="square"/>
<path d="M212.5 27H227.5C230.27 27 232.5 29.23 232.5 32V47C232.5 49.77 230.27 52 227.5 52H212.5C209.73 52 207.5 49.77 207.5 47V32C207.5 29.23 209.73 27 212.5 27Z" stroke="#767676" stroke-width="1.5" stroke-linecap="square"/>
<path d="M240.5 27H255.5C258.27 27 260.5 29.23 260.5 32V47C260.5 49.77 258.27 52 255.5 52H240.5C237.73 52 235.5 49.77 235.5 47V32C235.5 29.23 237.73 27 240.5 27Z" stroke="#767676" stroke-width="1.5" stroke-linecap="square"/>
<path d="M268.5 27H283.5C286.27 27 288.5 29.23 288.5 32V47C288.5 49.77 286.27 52 283.5 52H268.5C265.73 52 263.5 49.77 263.5 47V32C263.5 29.23 265.73 27 268.5 27Z" stroke="#767676" stroke-width="1.5" stroke-linecap="square"/>
<path d="M296.5 27H311.5C314.27 27 316.5 29.23 316.5 32V47C316.5 49.77 314.27 52 311.5 52H296.5C293.73 52 291.5 49.77 291.5 47V32C291.5 29.23 293.73 27 296.5 27Z" stroke="#767676" stroke-width="1.5" stroke-linecap="square"/>
<path d="M324.5 27H339.5C342.27 27 344.5 29.23 344.5 32V47C344.5 49.77 342.27 52 339.5 52H324.5C321.73 52 319.5 49.77 319.5 47V32C319.5 29.23 321.73 27 324.5 27Z" stroke="#767676" stroke-width="1.5" stroke-linecap="square"/>
<path d="M352.5 27H367.5C370.27 27 372.5 29.23 372.5 32V47C372.5 49.77 370.27 52 367.5 52H352.5C349.73 52 347.5 49.77 347.5 47V32C347.5 29.23 349.73 27 352.5 27Z" stroke="#767676" stroke-width="1.5" stroke-linecap="square"/>
<path d="M380.5 27H395.5C398.27 27 400.5 29.23 400.5 32V47C400.5 49.77 398.27 52 395.5 52H380.5C377.73 52 375.5 49.77 375.5 47V32C375.5 29.23 377.73 27 380.5 27Z" stroke="#767676" stroke-width="1.5" stroke-linecap="square"/>
<path d="M408.5 27H451.5C454.27 27 456.5 29.23 456.5 32V47C456.5 49.77 454.27 52 451.5 52H408.5C405.73 52 403.5 49.77 403.5 47V32C403.5 29.23 405.73 27 408.5 27Z" stroke="#767676" stroke-width="1.5" stroke-linecap="square"/>
<path d="M44.5 55H73.5C76.27 55 78.5 57.23 78.5 60V75C78.5 77.77 76.27 80 73.5 80H44.5C41.73 80 39.5 77.77 39.5 75V60C39.5 57.23 41.73 55 44.5 55Z" fill="#7CD4F2" stroke="#353535" stroke-width="1.5" stroke-linecap="square"/>
<path d="M86.5 55H101.5C104.27 55 106.5 57.23 106.5 60V75C106.5 77.77 104.27 80 101.5 80H86.5C83.73 80 81.5 77.77 81.5 75V60C81.5 57.23 83.73 55 86.5 55Z" stroke="#767676" stroke-width="1.5" stroke-linecap="square"/>
<path d="M114.5 55H129.5C132.27 55 134.5 57.23 134.5 60V75C134.5 77.77 132.27 80 129.5 80H114.5C111.73 80 109.5 77.77 109.5 75V60C109.5 57.23 111.73 55 114.5 55Z" stroke="#767676" stroke-width="1.5" stroke-linecap="square"/>
<path d="M142.5 55H157.5C160.27 55 162.5 57.23 162.5 60V75C162.5 77.77 160.27 80 157.5 80H142.5C139.73 80 137.5 77.77 137.5 75V60C137.5 57.23 139.73 55 142.5 55Z" stroke="#767676" stroke-width="1.5" stroke-linecap="square"/>
<path d="M170.5 55H185.5C188.27 55 190.5 57.23 190.5 60V75C190.5 77.77 188.27 80 185.5 80H170.5C167.73 80 165.5 77.77 165.5 75V60C165.5 57.23 167.73 55 170.5 55Z" stroke="#767676" stroke-width="1.5" stroke-linecap="square"/>
<path d="M198.5 55H213.5C216.27 55 218.5 57.23 218.5 60V75C218.5 77.77 216.27 80 213.5 80H198.5C195.73 80 193.5 77.77 193.5 75V60C193.5 57.23 195.73 55 198.5 55Z" stroke="#767676" stroke-width="1.5" stroke-linecap="square"/>
<path d="M226.5 55H241.5C244.27 55 246.5 57.23 246.5 60V75C246.5 77.77 244.27 80 241.5 80H226.5C223.73 80 221.5 77.77 221.5 75V60C221.5 57.23 223.73 55 226.5 55Z" stroke="#767676" stroke-width="1.5" stroke-linecap="square"/>
<path d="M254.5 55H269.5C272.27 55 274.5 57.23 274.5 60V75C274.5 77.77 272.27 80 269.5 80H254.5C251.73 80 249.5 77.77 249.5 75V60C249.5 57.23 251.73 55 254.5 55Z" stroke="#767676" stroke-width="1.5" stroke-linecap="square"/>
<path d="M282.5 55H297.5C300.27 55 302.5 57.23 302.5 60V75C302.5 77.77 300.27 80 297.5 80H282.5C279.73 80 277.5 77.77 277.5 75V60C277.5 57.23 279.73 55 282.5 55Z" fill="#BEBEBE" stroke="#353535" stroke-width="1.5" stroke-linecap="square"/>
<path d="M310.5 55H325.5C328.27 55 330.5 57.23 330.5 60V75C330.5 77.77 328.27 80 325.5 80H310.5C307.73 80 305.5 77.77 305.5 75V60C305.5 57.23 307.73 55 310.5 55Z" stroke="#767676" stroke-width="1.5" stroke-linecap="square"/>
<path d="M338.5 55H353.5C356.27 55 358.5 57.23 358.5 60V75C358.5 77.77 356.27 80 353.5 80H338.5C335.73 80 333.5 77.77 333.5 75V60C333.5 57.23 335.73 55 338.5 55Z" stroke="#767676" stroke-width="1.5" stroke-linecap="square"/>
<path d="M366.5 55H381.5C384.27 55 386.5 57.23 386.5 60V75C386.5 77.77 384.27 80 381.5 80H366.5C363.73 80 361.5 77.77 361.5 75V60C361.5 57.23 363.73 55 366.5 55Z" stroke="#767676" stroke-width="1.5" stroke-linecap="square"/>
<path d="M394.5 55H409.5C412.27 55 414.5 57.23 414.5 60V75C414.5 77.77 412.27 80 409.5 80H394.5C391.73 80 389.5 77.77 389.5 75V60C389.5 57.23 391.73 55 394.5 55Z" stroke="#767676" stroke-width="1.5" stroke-linecap="square"/>
<path d="M422.5 55H451.5C454.27 55 456.5 57.23 456.5 60V75C456.5 77.77 454.27 80 451.5 80H422.5C419.73 80 417.5 77.77 417.5 75V60C417.5 57.23 419.73 55 422.5 55Z" fill="white" stroke="#767676" stroke-width="1.5" stroke-linecap="square"/>
<path d="M44.5 83H80.5C83.27 83 85.5 85.23 85.5 88V103C85.5 105.77 83.27 108 80.5 108H44.5C41.73 108 39.5 105.77 39.5 103V88C39.5 85.23 41.73 83 44.5 83Z" stroke="#767676" stroke-width="1.5" stroke-linecap="square"/>
<path d="M93.5 83H108.5C111.27 83 113.5 85.23 113.5 88V103C113.5 105.77 111.27 108 108.5 108H93.5C90.73 108 88.5 105.77 88.5 103V88C88.5 85.23 90.73 83 93.5 83Z" fill="#7CD4F2" stroke="#353535" stroke-width="1.5" stroke-linecap="square"/>
<path d="M121.5 83H136.5C139.27 83 141.5 85.23 141.5 88V103C141.5 105.77 139.27 108 136.5 108H121.5C118.73 108 116.5 105.77 116.5 103V88C116.5 85.23 118.73 83 121.5 83Z" stroke="#767676" stroke-width="1.5" stroke-linecap="square"/>
<path d="M149.5 83H164.5C167.27 83 169.5 85.23 169.5 88V103C169.5 105.77 167.27 108 164.5 108H149.5C146.73 108 144.5 105.77 144.5 103V88C144.5 85.23 146.73 83 149.5 83Z" fill="#7CD4F2" stroke="#353535" stroke-width="1.5" stroke-linecap="square"/>
<path d="M177.5 83H192.5C195.27 83 197.5 85.23 197.5 88V103C197.5 105.77 195.27 108 192.5 108H177.5C174.73 108 172.5 105.77 172.5 103V88C172.5 85.23 174.73 83 177.5 83Z" fill="#C4C4C4" stroke="#353535" stroke-width="1.5" stroke-linecap="square"/>
<path d="M205.5 83H220.5C223.27 83 225.5 85.23 225.5 88V103C225.5 105.77 223.27 108 220.5 108H205.5C202.73 108 200.5 105.77 200.5 103V88C200.5 85.23 202.73 83 205.5 83Z" stroke="#767676" stroke-width="1.5" stroke-linecap="square"/>
<path d="M233.5 83H248.5C251.27 83 253.5 85.23 253.5 88V103C253.5 105.77 251.27 108 248.5 108H233.5C230.73 108 228.5 105.77 228.5 103V88C228.5 85.23 230.73 83 233.5 83Z" stroke="#767676" stroke-width="1.5" stroke-linecap="square"/>
<path d="M261.5 83H276.5C279.27 83 281.5 85.23 281.5 88V103C281.5 105.77 279.27 108 276.5 108H261.5C258.73 108 256.5 105.77 256.5 103V88C256.5 85.23 258.73 83 261.5 83Z" stroke="#767676" stroke-width="1.5" stroke-linecap="square"/>
<path d="M289.5 83H304.5C307.27 83 309.5 85.23 309.5 88V103C309.5 105.77 307.27 108 304.5 108H289.5C286.73 108 284.5 105.77 284.5 103V88C284.5 85.23 286.73 83 289.5 83Z" stroke="#767676" stroke-width="1.5" stroke-linecap="square"/>
<path d="M317.5 83H332.5C335.27 83 337.5 85.23 337.5 88V103C337.5 105.77 335.27 108 332.5 108H317.5C314.73 108 312.5 105.77 312.5 103V88C312.5 85.23 314.73 83 317.5 83Z" stroke="#767676" stroke-width="1.5" stroke-linecap="square"/>
<path d="M345.5 83H360.5C363.27 83 365.5 85.23 365.5 88V103C365.5 105.77 363.27 108 360.5 108H345.5C342.73 108 340.5 105.77 340.5 103V88C340.5 85.23 342.73 83 345.5 83Z" stroke="#767676" stroke-width="1.5" stroke-linecap="square"/>
<path d="M373.5 83H388.5C391.27 83 393.5 85.23 393.5 88V103C393.5 105.77 391.27 108 388.5 108H373.5C370.73 108 368.5 105.77 368.5 103V88C368.5 85.23 370.73 83 373.5 83Z" stroke="#767676" stroke-width="1.5" stroke-linecap="square"/>
<path d="M401.5 83H451.5C454.27 83 456.5 85.23 456.5 88V103C456.5 105.77 454.27 108 451.5 108H401.5C398.73 108 396.5 105.77 396.5 103V88C396.5 85.23 398.73 83 401.5 83Z" fill="#87FB80" stroke="#353535" stroke-width="1.5" stroke-linecap="square"/>
<path d="M44.5 111H93.5C96.27 111 98.5 113.23 98.5 116V131C98.5 133.77 96.27 136 93.5 136H44.5C41.73 136 39.5 133.77 39.5 131V116C39.5 113.23 41.73 111 44.5 111Z" stroke="#767676" stroke-width="1.5" stroke-linecap="square"/>
<path d="M106.5 111H121.5C124.27 111 126.5 113.23 126.5 116V131C126.5 133.77 124.27 136 121.5 136H106.5C103.73 136 101.5 133.77 101.5 131V116C101.5 113.23 103.73 111 106.5 111Z" stroke="#767676" stroke-width="1.5" stroke-linecap="square"/>
<path d="M134.5 111H149.5C152.27 111 154.5 113.23 154.5 116V131C154.5 133.77 152.27 136 149.5 136H134.5C131.73 136 129.5 133.77 129.5 131V116C129.5 113.23 131.73 111 134.5 111Z" stroke="#767676" stroke-width="1.5" stroke-linecap="square"/>
<path d="M162.5 111H177.5C180.27 111 182.5 113.23 182.5 116V131C182.5 133.77 180.27 136 177.5 136H162.5C159.73 136 157.5 133.77 157.5 131V116C157.5 113.23 159.73 111 162.5 111Z" fill="#BEBEBE" stroke="#353535" stroke-width="1.5" stroke-linecap="square"/>
<path d="M190.5 111H205.5C208.27 111 210.5 113.23 210.5 116V131C210.5 133.77 208.27 136 205.5 136H190.5C187.73 136 185.5 133.77 185.5 131V116C185.5 113.23 187.73 111 190.5 111Z" stroke="#767676" stroke-width="1.5" stroke-linecap="square"/>
<path d="M218.5 111H233.5C236.27 111 238.5 113.23 238.5 116V131C238.5 133.77 236.27 136 233.5 136H218.5C215.73 136 213.5 133.77 213.5 131V116C213.5 113.23 215.73 111 218.5 111Z" stroke="#767676" stroke-width="1.5" stroke-linecap="square"/>
<path d="M246.5 111H261.5C264.27 111 266.5 113.23 266.5 116V131C266.5 133.77 264.27 136 261.5 136H246.5C243.73 136 241.5 133.77 241.5 131V116C241.5 113.23 243.73 111 246.5 111Z" stroke="#767676" stroke-width="1.5" stroke-linecap="square"/>
<path d="M274.5 111H289.5C292.27 111 294.5 113.23 294.5 116V131C294.5 133.77 292.27 136 289.5 136H274.5C271.73 136 269.5 133.77 269.5 131V116C269.5 113.23 271.73 111 274.5 111Z" stroke="#767676" stroke-width="1.5" stroke-linecap="square"/>
<path d="M302.5 111H317.5C320.27 111 322.5 113.23 322.5 116V131C322.5 133.77 320.27 136 317.5 136H302.5C299.73 136 297.5 133.77 297.5 131V116C297.5 113.23 299.73 111 302.5 111Z" stroke="#767676" stroke-width="1.5" stroke-linecap="square"/>
<path d="M330.5 111H345.5C348.27 111 350.5 113.23 350.5 116V131C350.5 133.77 348.27 136 345.5 136H330.5C327.73 136 325.5 133.77 325.5 131V116C325.5 113.23 327.73 111 330.5 111Z" stroke="#767676" stroke-width="1.5" stroke-linecap="square"/>
<path d="M358.5 111H373.5C376.27 111 378.5 113.23 378.5 116V131C378.5 133.77 376.27 136 373.5 136H358.5C355.73 136 353.5 133.77 353.5 131V116C353.5 113.23 355.73 111 358.5 111Z" stroke="#767676" stroke-width="1.5" stroke-linecap="square"/>
<path d="M386.5 111H451.5C454.27 111 456.5 113.23 456.5 116V131C456.5 133.77 454.27 136 451.5 136H386.5C383.73 136 381.5 133.77 381.5 131V116C381.5 113.23 383.73 111 386.5 111Z" stroke="#767676" stroke-width="1.5" stroke-linecap="square"/>
<path d="M44.5 139H68.5C71.27 139 73.5 141.23 73.5 144V159C73.5 161.77 71.27 164 68.5 164H44.5C41.73 164 39.5 161.77 39.5 159V144C39.5 141.23 41.73 139 44.5 139Z" stroke="#767676" stroke-width="1.5" stroke-linecap="square"/>
<path d="M81.5 139H105.5C108.27 139 110.5 141.23 110.5 144V159C110.5 161.77 108.27 164 105.5 164H81.5C78.73 164 76.5 161.77 76.5 159V144C76.5 141.23 78.73 139 81.5 139V139Z" stroke="#767676" stroke-width="1.5" stroke-linecap="square"/>
<path d="M118.5 139H142.5C145.27 139 147.5 141.23 147.5 144V159C147.5 161.77 145.27 164 142.5 164H118.5C115.73 164 113.5 161.77 113.5 159V144C113.5 141.23 115.73 139 118.5 139Z" stroke="#767676" stroke-width="1.5" stroke-linecap="square"/>
<path d="M155.5 139H303.5C306.27 139 308.5 141.23 308.5 144V159C308.5 161.77 306.27 164 303.5 164H155.5C152.73 164 150.5 161.77 150.5 159V144C150.5 141.23 152.73 139 155.5 139Z" fill="#FF9494" stroke="#353535" stroke-width="1.5" stroke-linecap="square"/>
<path d="M316.5 139H340.5C343.27 139 345.5 141.23 345.5 144V159C345.5 161.77 343.27 164 340.5 164H316.5C313.73 164 311.5 161.77 311.5 159V144C311.5 141.23 313.73 139 316.5 139Z" stroke="#767676" stroke-width="1.5" stroke-linecap="square"/>
<path d="M353.5 139H377.5C380.27 139 382.5 141.23 382.5 144V159C382.5 161.77 380.27 164 377.5 164H353.5C350.73 164 348.5 161.77 348.5 159V144C348.5 141.23 350.73 139 353.5 139Z" stroke="#767676" stroke-width="1.5" stroke-linecap="square"/>
<path d="M390.5 139H414.5C417.27 139 419.5 141.23 419.5 144V159C419.5 161.77 417.27 164 414.5 164H390.5C387.73 164 385.5 161.77 385.5 159V144C385.5 141.23 387.73 139 390.5 139Z" stroke="#767676" stroke-width="1.5" stroke-linecap="square"/>
<path d="M427.5 139H451.5C454.27 139 456.5 141.23 456.5 144V159C456.5 161.77 454.27 164 451.5 164H427.5C424.73 164 422.5 161.77 422.5 159V144C422.5 141.23 424.73 139 427.5 139Z" stroke="#767676" stroke-width="1.5" stroke-linecap="square"/>
<path d="M358.906 40.1782V38.8062H361.118V40.1782H358.906Z" fill="#767676"/>
<path d="M372.998 72.0796V62.9048H374.99V63.9839H374.067V71.0005H374.99V72.0796H372.998Z" fill="#767676"/>
<path d="M402.991 62.9048V72.0796H400.999V71.0005H401.922V63.9741H400.999V62.9048H402.991Z" fill="#767676"/>
<path d="M435.846 63.791H436.676L438.146 71.1934H437.301L435.846 63.791Z" fill="#767676"/>
<path d="M385.949 39.0381V37.7783H390.055V39.0381H385.949ZM385.949 41.2061V39.9414H390.055V41.2061H385.949Z" fill="#767676"/>
<path d="M380.599 94.6587L380.389 93.3257V92.1147H381.615V93.3257L381.429 94.6587H380.599Z" fill="#767676"/>
<path d="M352.481 95.4595V94.0874H353.604V95.4595H352.481ZM352.481 97.9009H353.604V98.8823C353.604 99.439 353.539 99.8524 353.409 100.123C353.249 100.458 352.982 100.707 352.608 100.87L352.388 100.303C352.61 100.212 352.769 100.087 352.867 99.9272C352.964 99.771 353.016 99.5529 353.023 99.2729H352.481V97.9009Z" fill="#767676"/>
<path d="M309.473 125.962H310.596V126.943C310.596 127.5 310.531 127.913 310.401 128.184C310.241 128.519 309.974 128.768 309.6 128.931L309.38 128.364C309.602 128.273 309.761 128.149 309.859 127.993C309.957 127.84 310.009 127.62 310.015 127.334H309.473V125.962Z" fill="#767676"/>
<path d="M337.437 127.334V125.962H338.565V127.334H337.437Z" fill="#767676"/>
<path d="M364.84 127.456L366.295 120.054H367.14L365.67 127.456H364.84Z" fill="#767676"/>
<path d="M494.52 152.935V150.055H489.25V147.805L485.48 151.495L489.25 155.195V152.935H494.52" fill="#353535"/>
<path d="M519.445 146.985H516.565V152.245H514.305L518.005 156.015L521.695 152.245H519.445V146.985Z" fill="#767676"/>
<path d="M541.485 150.055V152.935H546.745V155.195L550.515 151.495L546.745 147.805V150.055H541.485" fill="#353535"/>
<path d="M516.565 128.01H519.445V122.76H521.695L518.005 118.99L514.305 122.76H516.565V128.01Z" fill="#767676"/>
<path d="M96.6465 66.957C96.6465 67.7656 96.5176 68.4668 96.2598 69.0605C96.0059 69.6504 95.6484 70.1191 95.1875 70.4668L96.6523 71.6094L95.6914 72.4766L93.875 71.041C93.6367 71.0918 93.3809 71.1172 93.1074 71.1172C92.4199 71.1172 91.8047 70.9492 91.2617 70.6133C90.7227 70.2734 90.3047 69.791 90.0078 69.166C89.7148 68.541 89.5664 67.8203 89.5625 67.0039V66.5234C89.5625 65.6914 89.709 64.957 90.002 64.3203C90.2988 63.6836 90.7148 63.1973 91.25 62.8613C91.7891 62.5215 92.4043 62.3516 93.0957 62.3516C93.7988 62.3516 94.418 62.5195 94.9531 62.8555C95.4922 63.1875 95.9082 63.668 96.2012 64.2969C96.4941 64.9219 96.6426 65.6504 96.6465 66.4824V66.957ZM95.1582 66.5117C95.1582 65.5508 94.9785 64.8223 94.6191 64.3262C94.2598 63.8301 93.752 63.582 93.0957 63.582C92.459 63.582 91.959 63.834 91.5957 64.3379C91.2363 64.8379 91.0527 65.5449 91.0449 66.459V66.957C91.0449 67.8789 91.2246 68.5996 91.584 69.1191C91.9473 69.6387 92.4551 69.8984 93.1074 69.8984C93.7676 69.8984 94.2734 69.6484 94.625 69.1484C94.9805 68.6484 95.1582 67.918 95.1582 66.957V66.5117Z" fill="#767676"/>
<path d="M96.6465 66.957C96.6465 67.7656 96.5176 68.4668 96.2598 69.0605C96.0059 69.6504 95.6484 70.1191 95.1875 70.4668L96.6523 71.6094L95.6914 72.4766L93.875 71.041C93.6367 71.0918 93.3809 71.1172 93.1074 71.1172C92.4199 71.1172 91.8047 70.9492 91.2617 70.6133C90.7227 70.2734 90.3047 69.791 90.0078 69.166C89.7148 68.541 89.5664 67.8203 89.5625 67.0039V66.5234C89.5625 65.6914 89.709 64.957 90.002 64.3203C90.2988 63.6836 90.7148 63.1973 91.25 62.8613C91.7891 62.5215 92.4043 62.3516 93.0957 62.3516C93.7988 62.3516 94.418 62.5195 94.9531 62.8555C95.4922 63.1875 95.9082 63.668 96.2012 64.2969C96.4941 64.9219 96.6426 65.6504 96.6465 66.4824V66.957ZM95.1582 66.5117C95.1582 65.5508 94.9785 64.8223 94.6191 64.3262C94.2598 63.8301 93.752 63.582 93.0957 63.582C92.459 63.582 91.959 63.834 91.5957 64.3379C91.2363 64.8379 91.0527 65.5449 91.0449 66.459V66.957C91.0449 67.8789 91.2246 68.5996 91.584 69.1191C91.9473 69.6387 92.4551 69.8984 93.1074 69.8984C93.7676 69.8984 94.2734 69.6484 94.625 69.1484C94.9805 68.6484 95.1582 67.918 95.1582 66.957V66.5117Z" fill="#767676"/>
<path d="M80.4941 43H79.0762V36.1504L76.9844 36.8652V35.6641L80.3125 34.4395H80.4941V43Z" fill="#767676"/>
<path d="M110.375 43H104.639V42.0215L107.48 38.9219C107.891 38.4648 108.182 38.084 108.354 37.7793C108.529 37.4707 108.617 37.1621 108.617 36.8535C108.617 36.4473 108.502 36.1191 108.271 35.8691C108.045 35.6191 107.738 35.4941 107.352 35.4941C106.891 35.4941 106.533 35.6348 106.279 35.916C106.025 36.1973 105.898 36.582 105.898 37.0703H104.475C104.475 36.5508 104.592 36.084 104.826 35.6699C105.064 35.252 105.402 34.9277 105.84 34.6973C106.281 34.4668 106.789 34.3516 107.363 34.3516C108.191 34.3516 108.844 34.5605 109.32 34.9785C109.801 35.3926 110.041 35.9668 110.041 36.7012C110.041 37.127 109.92 37.5742 109.678 38.043C109.439 38.5078 109.047 39.0371 108.5 39.6309L106.414 41.8633H110.375V43Z" fill="#767676"/>
<path d="M134.285 38.084H135.152C135.59 38.0801 135.936 37.9668 136.189 37.7441C136.447 37.5215 136.576 37.1992 136.576 36.7773C136.576 36.3711 136.469 36.0566 136.254 35.834C136.043 35.6074 135.719 35.4941 135.281 35.4941C134.898 35.4941 134.584 35.6055 134.338 35.8281C134.092 36.0469 133.969 36.334 133.969 36.6895H132.545C132.545 36.252 132.66 35.8535 132.891 35.4941C133.125 35.1348 133.449 34.8555 133.863 34.6562C134.281 34.4531 134.748 34.3516 135.264 34.3516C136.115 34.3516 136.783 34.5664 137.268 34.9961C137.756 35.4219 138 36.0156 138 36.7773C138 37.1602 137.877 37.5215 137.631 37.8613C137.389 38.1973 137.074 38.4512 136.688 38.623C137.156 38.7832 137.512 39.0352 137.754 39.3789C138 39.7227 138.123 40.1328 138.123 40.6094C138.123 41.375 137.859 41.9844 137.332 42.4375C136.809 42.8906 136.119 43.1172 135.264 43.1172C134.443 43.1172 133.771 42.8984 133.248 42.4609C132.725 42.0234 132.463 41.4414 132.463 40.7148H133.887C133.887 41.0898 134.012 41.3945 134.262 41.6289C134.516 41.8633 134.855 41.9805 135.281 41.9805C135.723 41.9805 136.07 41.8633 136.324 41.6289C136.578 41.3945 136.705 41.0547 136.705 40.6094C136.705 40.1602 136.572 39.8145 136.307 39.5723C136.041 39.3301 135.646 39.209 135.123 39.209H134.285V38.084Z" fill="#767676"/>
<path d="M165.455 39.959H166.516V41.1016H165.455V43H164.031V41.1016H160.346L160.305 40.2344L163.984 34.4688H165.455V39.959ZM161.799 39.959H164.031V36.3965L163.926 36.584L161.799 39.959Z" fill="#767676"/>
<path d="M189.02 38.7695L189.482 34.4688H194.064V35.6992H190.666L190.432 37.7383C190.826 37.5117 191.271 37.3984 191.768 37.3984C192.58 37.3984 193.211 37.6582 193.66 38.1777C194.113 38.6973 194.34 39.3965 194.34 40.2754C194.34 41.1426 194.09 41.834 193.59 42.3496C193.09 42.8613 192.404 43.1172 191.533 43.1172C190.752 43.1172 190.104 42.8965 189.588 42.4551C189.076 42.0098 188.799 41.4238 188.756 40.6973H190.133C190.188 41.1113 190.336 41.4297 190.578 41.6523C190.82 41.8711 191.137 41.9805 191.527 41.9805C191.965 41.9805 192.305 41.8242 192.547 41.5117C192.793 41.1992 192.916 40.7734 192.916 40.2344C192.916 39.7148 192.781 39.3047 192.512 39.0039C192.242 38.6992 191.871 38.5469 191.398 38.5469C191.141 38.5469 190.922 38.582 190.742 38.6523C190.562 38.7188 190.367 38.8516 190.156 39.0508L189.02 38.7695Z" fill="#767676"/>
<path d="M221.068 34.4277V35.6055H220.893C220.096 35.6172 219.459 35.8359 218.982 36.2617C218.506 36.6875 218.223 37.291 218.133 38.0723C218.59 37.5918 219.174 37.3516 219.885 37.3516C220.639 37.3516 221.232 37.6172 221.666 38.1484C222.104 38.6797 222.322 39.3652 222.322 40.2051C222.322 41.0723 222.066 41.7754 221.555 42.3145C221.047 42.8496 220.379 43.1172 219.551 43.1172C218.699 43.1172 218.008 42.8027 217.477 42.1738C216.949 41.5449 216.686 40.7207 216.686 39.7012V39.2148C216.686 37.7188 217.049 36.5469 217.775 35.6992C218.506 34.8516 219.555 34.4277 220.922 34.4277H221.068ZM219.539 38.5C219.227 38.5 218.939 38.5879 218.678 38.7637C218.42 38.9395 218.23 39.1738 218.109 39.4668V39.9004C218.109 40.5332 218.242 41.0371 218.508 41.4121C218.773 41.7832 219.117 41.9688 219.539 41.9688C219.961 41.9688 220.295 41.8105 220.541 41.4941C220.787 41.1777 220.91 40.7617 220.91 40.2461C220.91 39.7305 220.785 39.3105 220.535 38.9863C220.285 38.6621 219.953 38.5 219.539 38.5Z" fill="#767676"/>
<path d="M250.316 35.2598L246.906 43H245.412L248.816 35.6113H244.404V34.4688H250.316V35.2598Z" fill="#767676"/>
<path d="M278.012 36.7188C278.012 37.1367 277.904 37.5098 277.689 37.8379C277.475 38.1621 277.182 38.418 276.811 38.6055C277.256 38.8125 277.598 39.0957 277.836 39.4551C278.078 39.8145 278.199 40.2207 278.199 40.6738C278.199 41.4238 277.945 42.0195 277.438 42.4609C276.93 42.8984 276.254 43.1172 275.41 43.1172C274.562 43.1172 273.883 42.8965 273.371 42.4551C272.863 42.0137 272.609 41.4199 272.609 40.6738C272.609 40.2168 272.73 39.8066 272.973 39.4434C273.215 39.0801 273.555 38.8008 273.992 38.6055C273.625 38.418 273.334 38.1621 273.119 37.8379C272.908 37.5098 272.803 37.1367 272.803 36.7188C272.803 35.9922 273.037 35.416 273.506 34.9902C273.975 34.5645 274.607 34.3516 275.404 34.3516C276.205 34.3516 276.84 34.5645 277.309 34.9902C277.777 35.416 278.012 35.9922 278.012 36.7188ZM276.775 40.6035C276.775 40.1816 276.648 39.8418 276.395 39.584C276.145 39.3223 275.812 39.1914 275.398 39.1914C274.984 39.1914 274.652 39.3203 274.402 39.5781C274.156 39.8359 274.033 40.1777 274.033 40.6035C274.033 41.0215 274.154 41.3555 274.396 41.6055C274.643 41.8555 274.98 41.9805 275.41 41.9805C275.84 41.9805 276.174 41.8594 276.412 41.6172C276.654 41.375 276.775 41.0371 276.775 40.6035ZM276.594 36.7715C276.594 36.4004 276.486 36.0957 276.271 35.8574C276.057 35.6152 275.768 35.4941 275.404 35.4941C275.041 35.4941 274.754 35.6094 274.543 35.8398C274.332 36.0664 274.227 36.377 274.227 36.7715C274.227 37.1621 274.332 37.4727 274.543 37.7031C274.758 37.9336 275.047 38.0488 275.41 38.0488C275.773 38.0488 276.061 37.9336 276.271 37.7031C276.486 37.4727 276.594 37.1621 276.594 36.7715Z" fill="#767676"/>
<path d="M304.676 39.4316C304.199 39.9355 303.643 40.1875 303.006 40.1875C302.256 40.1875 301.658 39.9258 301.213 39.4023C300.768 38.875 300.545 38.1836 300.545 37.3281C300.545 36.7656 300.658 36.2559 300.885 35.7988C301.111 35.3418 301.434 34.9863 301.852 34.7324C302.27 34.4785 302.754 34.3516 303.305 34.3516C304.164 34.3516 304.846 34.6719 305.35 35.3125C305.854 35.9531 306.105 36.8105 306.105 37.8848V38.2832C306.105 39.8223 305.758 40.9961 305.062 41.8047C304.367 42.6133 303.33 43.0234 301.951 43.0352H301.781V41.8574H301.986C302.826 41.8457 303.471 41.6445 303.92 41.2539C304.369 40.8594 304.621 40.252 304.676 39.4316ZM303.305 39.0742C303.59 39.0742 303.857 38.9922 304.107 38.8281C304.357 38.6641 304.551 38.4375 304.688 38.1484V37.5918C304.688 36.9629 304.559 36.457 304.301 36.0742C304.043 35.6914 303.709 35.5 303.299 35.5C302.889 35.5 302.561 35.6699 302.314 36.0098C302.072 36.3457 301.951 36.7715 301.951 37.2871C301.951 37.8223 302.074 38.2539 302.32 38.582C302.566 38.9102 302.895 39.0742 303.305 39.0742Z" fill="#767676"/>
<path d="M334.199 39.4082C334.199 40.6348 333.969 41.5605 333.508 42.1855C333.051 42.8066 332.354 43.1172 331.416 43.1172C330.494 43.1172 329.799 42.8145 329.33 42.209C328.865 41.5996 328.627 40.6992 328.615 39.5078V38.0312C328.615 36.8047 328.844 35.8848 329.301 35.2715C329.762 34.6582 330.463 34.3516 331.404 34.3516C332.338 34.3516 333.033 34.6504 333.49 35.248C333.951 35.8457 334.188 36.7402 334.199 37.9316V39.4082ZM332.775 37.8145C332.775 37.0137 332.666 36.4277 332.447 36.0566C332.229 35.6816 331.881 35.4941 331.404 35.4941C330.939 35.4941 330.598 35.6719 330.379 36.0273C330.16 36.3789 330.045 36.9297 330.033 37.6797V39.6133C330.033 40.4102 330.145 41.0039 330.367 41.3945C330.59 41.7852 330.939 41.9805 331.416 41.9805C331.873 41.9805 332.211 41.8008 332.43 41.4414C332.648 41.0781 332.764 40.5117 332.775 39.7422V37.8145Z" fill="#767676"/>
<path d="M101.643 97.0137H98.3379L97.6465 99H96.1055L99.3281 90.4688H100.658L103.887 99H102.34L101.643 97.0137ZM98.7539 95.8184H101.227L99.9902 92.2793L98.7539 95.8184Z" fill="#353535"/>
<path d="M112.262 125.816H116.82V127H110.469V126.039L114.881 119.664H110.498V118.469H116.68V119.406L112.262 125.816Z" fill="#767676"/>
<path d="M140.803 121.551L142.596 118.469H144.307L141.729 122.699L144.365 127H142.637L140.803 123.871L138.963 127H137.24L139.883 122.699L137.299 118.469H139.01L140.803 121.551Z" fill="#767676"/>
<path d="M173.377 124.223C173.291 125.133 172.955 125.844 172.369 126.355C171.783 126.863 171.004 127.117 170.031 127.117C169.352 127.117 168.752 126.957 168.232 126.637C167.717 126.312 167.318 125.854 167.037 125.26C166.756 124.666 166.609 123.977 166.598 123.191V122.395C166.598 121.59 166.74 120.881 167.025 120.268C167.311 119.654 167.719 119.182 168.25 118.85C168.785 118.518 169.402 118.352 170.102 118.352C171.043 118.352 171.801 118.607 172.375 119.119C172.949 119.631 173.283 120.354 173.377 121.287H171.9C171.83 120.674 171.65 120.232 171.361 119.963C171.076 119.689 170.656 119.553 170.102 119.553C169.457 119.553 168.961 119.789 168.613 120.262C168.27 120.73 168.094 121.42 168.086 122.33V123.086C168.086 124.008 168.25 124.711 168.578 125.195C168.91 125.68 169.395 125.922 170.031 125.922C170.613 125.922 171.051 125.791 171.344 125.529C171.637 125.268 171.822 124.832 171.9 124.223H173.377Z" fill="#353535"/>
<path d="M197.873 125.143L200.041 118.469H201.67L198.6 127H197.164L194.105 118.469H195.729L197.873 125.143Z" fill="#767676"/>
<path d="M222.867 127V118.469H225.791C226.756 118.469 227.49 118.662 227.994 119.049C228.498 119.436 228.75 120.012 228.75 120.777C228.75 121.168 228.645 121.52 228.434 121.832C228.223 122.145 227.914 122.387 227.508 122.559C227.969 122.684 228.324 122.92 228.574 123.268C228.828 123.611 228.955 124.025 228.955 124.51C228.955 125.311 228.697 125.926 228.182 126.355C227.67 126.785 226.936 127 225.979 127H222.867ZM224.35 123.15V125.816H225.996C226.461 125.816 226.824 125.701 227.086 125.471C227.348 125.24 227.479 124.92 227.479 124.51C227.479 123.623 227.025 123.17 226.119 123.15H224.35ZM224.35 122.061H225.803C226.264 122.061 226.623 121.957 226.881 121.75C227.143 121.539 227.273 121.242 227.273 120.859C227.273 120.438 227.152 120.133 226.91 119.945C226.672 119.758 226.299 119.664 225.791 119.664H224.35V122.061Z" fill="#767676"/>
<path d="M256.635 127H255.152L251.35 120.947V127H249.867V118.469H251.35L255.164 124.545V118.469H256.635V127Z" fill="#767676"/>
<path d="M278.789 118.469L281.25 125.008L283.705 118.469H285.621V127H284.145V124.188L284.291 120.426L281.771 127H280.711L278.197 120.432L278.344 124.188V127H276.867V118.469H278.789Z" fill="#767676"/>
<path d="M130.326 96.8027C130.326 96.4277 130.193 96.1387 129.928 95.9355C129.666 95.7324 129.191 95.5273 128.504 95.3203C127.816 95.1133 127.27 94.8828 126.863 94.6289C126.086 94.1406 125.697 93.5039 125.697 92.7188C125.697 92.0312 125.977 91.4648 126.535 91.0195C127.098 90.5742 127.826 90.3516 128.721 90.3516C129.314 90.3516 129.844 90.4609 130.309 90.6797C130.773 90.8984 131.139 91.2109 131.404 91.6172C131.67 92.0195 131.803 92.4668 131.803 92.959H130.326C130.326 92.5137 130.186 92.166 129.904 91.916C129.627 91.6621 129.229 91.5352 128.709 91.5352C128.225 91.5352 127.848 91.6387 127.578 91.8457C127.312 92.0527 127.18 92.3418 127.18 92.7129C127.18 93.0254 127.324 93.2871 127.613 93.498C127.902 93.7051 128.379 93.9082 129.043 94.1074C129.707 94.3027 130.24 94.5273 130.643 94.7812C131.045 95.0312 131.34 95.3203 131.527 95.6484C131.715 95.9727 131.809 96.3535 131.809 96.791C131.809 97.502 131.535 98.0684 130.988 98.4902C130.445 98.9082 129.707 99.1172 128.773 99.1172C128.156 99.1172 127.588 99.0039 127.068 98.7773C126.553 98.5469 126.15 98.2305 125.861 97.8281C125.576 97.4258 125.434 96.957 125.434 96.4219H126.916C126.916 96.9062 127.076 97.2812 127.396 97.5469C127.717 97.8125 128.176 97.9453 128.773 97.9453C129.289 97.9453 129.676 97.8418 129.934 97.6348C130.195 97.4238 130.326 97.1465 130.326 96.8027Z" fill="#767676"/>
<path d="M153.867 99V90.4688H156.387C157.141 90.4688 157.809 90.6367 158.391 90.9727C158.977 91.3086 159.43 91.7852 159.75 92.4023C160.07 93.0195 160.23 93.7266 160.23 94.5234V94.9512C160.23 95.7598 160.068 96.4707 159.744 97.084C159.424 97.6973 158.965 98.1699 158.367 98.502C157.773 98.834 157.092 99 156.322 99H153.867ZM155.35 91.6641V97.8164H156.316C157.094 97.8164 157.689 97.5742 158.104 97.0898C158.521 96.6016 158.734 95.9023 158.742 94.9922V94.5176C158.742 93.5918 158.541 92.8848 158.139 92.3965C157.736 91.9082 157.152 91.6641 156.387 91.6641H155.35Z" fill="#353535"/>
<path d="M186.783 95.3848H183.35V99H181.867V90.4688H187.287V91.6641H183.35V94.2012H186.783V95.3848Z" fill="#353535"/>
<path d="M215.406 97.8926C215.098 98.2949 214.67 98.5996 214.123 98.8066C213.576 99.0137 212.955 99.1172 212.26 99.1172C211.545 99.1172 210.912 98.9551 210.361 98.6309C209.811 98.3066 209.385 97.8438 209.084 97.2422C208.787 96.6367 208.633 95.9316 208.621 95.127V94.459C208.621 93.1699 208.93 92.1641 209.547 91.4414C210.164 90.7148 211.025 90.3516 212.131 90.3516C213.08 90.3516 213.834 90.5859 214.393 91.0547C214.951 91.5234 215.287 92.1992 215.4 93.082H213.947C213.783 92.0547 213.188 91.541 212.16 91.541C211.496 91.541 210.99 91.7812 210.643 92.2617C210.299 92.7383 210.121 93.4395 210.109 94.3652V95.0215C210.109 95.9434 210.303 96.6602 210.689 97.1719C211.08 97.6797 211.621 97.9336 212.312 97.9336C213.07 97.9336 213.609 97.7617 213.93 97.418V95.748H212.172V94.623H215.406V97.8926Z" fill="#767676"/>
<path d="M244.641 99H243.164V95.209H239.35V99H237.867V90.4688H239.35V94.0195H243.164V90.4688H244.641V99Z" fill="#767676"/>
<path d="M269.359 90.4688H270.836V96.4512C270.836 97.2676 270.58 97.916 270.068 98.3965C269.561 98.877 268.889 99.1172 268.053 99.1172C267.162 99.1172 266.475 98.8926 265.99 98.4434C265.506 97.9941 265.264 97.3691 265.264 96.5684H266.74C266.74 97.0215 266.852 97.3633 267.074 97.5938C267.301 97.8203 267.627 97.9336 268.053 97.9336C268.451 97.9336 268.768 97.8027 269.002 97.541C269.24 97.2754 269.359 96.9102 269.359 96.4453V90.4688Z" fill="#767676"/>
<path d="M295.316 95.3145L294.35 96.3398V99H292.867V90.4688H294.35V94.4707L295.17 93.457L297.666 90.4688H299.459L296.289 94.248L299.641 99H297.883L295.316 95.3145Z" fill="#767676"/>
<path d="M323.35 97.8164H327.223V99H321.867V90.4688H323.35V97.8164Z" fill="#767676"/>
<path d="M123.559 68.8906L124.871 62.4688H126.342L124.373 71H122.955L121.332 64.7715L119.674 71H118.25L116.281 62.4688H117.752L119.076 68.8789L120.705 62.4688H121.947L123.559 68.8906Z" fill="#767676"/>
<path d="M151.854 67.1914H148.35V69.8164H152.445V71H146.867V62.4688H152.404V63.6641H148.35V66.0195H151.854V67.1914Z" fill="#767676"/>
<path d="M178.002 67.7129H176.35V71H174.867V62.4688H177.867C178.852 62.4688 179.611 62.6895 180.146 63.1309C180.682 63.5723 180.949 64.2109 180.949 65.0469C180.949 65.6172 180.811 66.0957 180.533 66.4824C180.26 66.8652 179.877 67.1602 179.385 67.3672L181.301 70.9238V71H179.713L178.002 67.7129ZM176.35 66.5234H177.873C178.373 66.5234 178.764 66.3984 179.045 66.1484C179.326 65.8945 179.467 65.5488 179.467 65.1113C179.467 64.6543 179.336 64.3008 179.074 64.0508C178.816 63.8008 178.43 63.6719 177.914 63.6641H176.35V66.5234Z" fill="#767676"/>
<path d="M209.031 63.6641H206.371V71H204.9V63.6641H202.264V62.4688H209.031V63.6641Z" fill="#767676"/>
<path d="M233.65 66.5117L235.613 62.4688H237.254L234.395 67.8594V71H232.906V67.8594L230.041 62.4688H231.688L233.65 66.5117Z" fill="#767676"/>
<path d="M265.107 62.4688V68.1699C265.107 69.0762 264.816 69.7949 264.234 70.3262C263.656 70.8535 262.885 71.1172 261.92 71.1172C260.943 71.1172 260.168 70.8574 259.594 70.3379C259.02 69.8145 258.732 69.0898 258.732 68.1641V62.4688H260.209V68.1758C260.209 68.7461 260.354 69.1816 260.643 69.4824C260.932 69.7832 261.357 69.9336 261.92 69.9336C263.061 69.9336 263.631 69.332 263.631 68.1289V62.4688H265.107Z" fill="#767676"/>
<path d="M290.432 71H288.955V62.4688H290.432V71Z" fill="#353535"/>
<path d="M321.676 66.957C321.676 67.793 321.531 68.5273 321.242 69.1602C320.953 69.7891 320.539 70.2734 320 70.6133C319.465 70.9492 318.848 71.1172 318.148 71.1172C317.457 71.1172 316.84 70.9492 316.297 70.6133C315.758 70.2734 315.34 69.791 315.043 69.166C314.75 68.541 314.602 67.8203 314.598 67.0039V66.5234C314.598 65.6914 314.744 64.957 315.037 64.3203C315.334 63.6836 315.75 63.1973 316.285 62.8613C316.824 62.5215 317.441 62.3516 318.137 62.3516C318.832 62.3516 319.447 62.5195 319.982 62.8555C320.521 63.1875 320.938 63.668 321.23 64.2969C321.523 64.9219 321.672 65.6504 321.676 66.4824V66.957ZM320.193 66.5117C320.193 65.5664 320.014 64.8418 319.654 64.3379C319.299 63.834 318.793 63.582 318.137 63.582C317.496 63.582 316.994 63.834 316.631 64.3379C316.271 64.8379 316.088 65.5469 316.08 66.4648V66.957C316.08 67.8945 316.262 68.6191 316.625 69.1309C316.992 69.6426 317.5 69.8984 318.148 69.8984C318.805 69.8984 319.309 69.6484 319.66 69.1484C320.016 68.6484 320.193 67.918 320.193 66.957V66.5117Z" fill="#767676"/>
<path d="M344.35 67.8301V71H342.867V62.4688H346.131C347.084 62.4688 347.84 62.7168 348.398 63.2129C348.961 63.709 349.242 64.3652 349.242 65.1816C349.242 66.0176 348.967 66.668 348.416 67.1328C347.869 67.5977 347.102 67.8301 346.113 67.8301H344.35ZM344.35 66.6406H346.131C346.658 66.6406 347.061 66.5176 347.338 66.2715C347.615 66.0215 347.754 65.6621 347.754 65.1934C347.754 64.7324 347.613 64.3652 347.332 64.0918C347.051 63.8145 346.664 63.6719 346.172 63.6641H344.35V66.6406Z" fill="#767676"/>
<path d="M128.232 152.51H125.753L125.235 154H124.079L126.496 147.602H127.494L129.915 154H128.755L128.232 152.51ZM126.065 151.614H127.92L126.993 148.959L126.065 151.614Z" fill="#767676"/>
<path d="M131.677 154H130.609V147.25H131.677V154Z" fill="#767676"/>
<path d="M134.182 148.089V149.245H135.021V150.036H134.182V152.69C134.182 152.872 134.217 153.004 134.288 153.086C134.361 153.165 134.49 153.205 134.674 153.205C134.797 153.205 134.922 153.19 135.048 153.161V153.987C134.805 154.054 134.57 154.088 134.345 154.088C133.524 154.088 133.114 153.635 133.114 152.73V150.036H132.332V149.245H133.114V148.089H134.182Z" fill="#767676"/>
<path d="M325.232 152.51H322.753L322.235 154H321.079L323.496 147.602H324.494L326.915 154H325.755L325.232 152.51ZM323.065 151.614H324.92L323.993 148.959L323.065 151.614Z" fill="#767676"/>
<path d="M328.677 154H327.609V147.25H328.677V154Z" fill="#767676"/>
<path d="M331.182 148.089V149.245H332.021V150.036H331.182V152.69C331.182 152.872 331.217 153.004 331.288 153.086C331.361 153.165 331.49 153.205 331.674 153.205C331.797 153.205 331.922 153.19 332.048 153.161V153.987C331.805 154.054 331.57 154.088 331.345 154.088C330.524 154.088 330.114 153.635 330.114 152.73V150.036H329.332V149.245H330.114V148.089H331.182Z" fill="#767676"/>
<path d="M90.7568 150.968C90.7568 151.595 90.6484 152.146 90.4316 152.62C90.2148 153.092 89.9043 153.455 89.5 153.71C89.0986 153.962 88.6357 154.088 88.1113 154.088C87.5928 154.088 87.1299 153.962 86.7227 153.71C86.3184 153.455 86.0049 153.093 85.7822 152.625C85.5625 152.156 85.4512 151.615 85.4482 151.003V150.643C85.4482 150.019 85.5581 149.468 85.7778 148.99C86.0005 148.513 86.3125 148.148 86.7139 147.896C87.1182 147.641 87.5811 147.514 88.1025 147.514C88.624 147.514 89.0854 147.64 89.4868 147.892C89.8911 148.141 90.2031 148.501 90.4229 148.973C90.6426 149.441 90.7539 149.988 90.7568 150.612V150.968ZM89.645 150.634C89.645 149.925 89.5103 149.381 89.2407 149.003C88.9741 148.625 88.5947 148.437 88.1025 148.437C87.6221 148.437 87.2456 148.625 86.9731 149.003C86.7036 149.378 86.5659 149.91 86.5601 150.599V150.968C86.5601 151.671 86.6963 152.214 86.9688 152.598C87.2441 152.982 87.625 153.174 88.1113 153.174C88.6035 153.174 88.9814 152.986 89.2451 152.611C89.5117 152.236 89.645 151.688 89.645 150.968V150.634Z" fill="#767676"/>
<path d="M95.9248 151.671C95.9248 152.406 95.7578 152.994 95.4238 153.433C95.0898 153.87 94.6416 154.088 94.0791 154.088C93.5576 154.088 93.1401 153.917 92.8267 153.574V155.828H91.7588V149.245H92.7432L92.7871 149.729C93.1006 149.348 93.5269 149.157 94.0659 149.157C94.646 149.157 95.1001 149.374 95.4282 149.808C95.7593 150.238 95.9248 150.837 95.9248 151.605V151.671ZM94.8613 151.579C94.8613 151.104 94.7661 150.728 94.5757 150.449C94.3882 150.171 94.1187 150.032 93.7671 150.032C93.3306 150.032 93.0171 150.212 92.8267 150.572V152.682C93.02 153.051 93.3364 153.235 93.7759 153.235C94.1157 153.235 94.3809 153.099 94.5713 152.827C94.7646 152.551 94.8613 152.135 94.8613 151.579Z" fill="#767676"/>
<path d="M98.1704 148.089V149.245H99.0098V150.036H98.1704V152.69C98.1704 152.872 98.2056 153.004 98.2759 153.086C98.3491 153.165 98.478 153.205 98.6626 153.205C98.7856 153.205 98.9102 153.19 99.0361 153.161V153.987C98.793 154.054 98.5586 154.088 98.333 154.088C97.5127 154.088 97.1025 153.635 97.1025 152.73V150.036H96.3203V149.245H97.1025V148.089H98.1704Z" fill="#767676"/>
<path d="M362.757 150.968C362.757 151.595 362.648 152.146 362.432 152.62C362.215 153.092 361.904 153.455 361.5 153.71C361.099 153.962 360.636 154.088 360.111 154.088C359.593 154.088 359.13 153.962 358.723 153.71C358.318 153.455 358.005 153.093 357.782 152.625C357.562 152.156 357.451 151.615 357.448 151.003V150.643C357.448 150.019 357.558 149.468 357.778 148.99C358 148.513 358.312 148.148 358.714 147.896C359.118 147.641 359.581 147.514 360.103 147.514C360.624 147.514 361.085 147.64 361.487 147.892C361.891 148.141 362.203 148.501 362.423 148.973C362.643 149.441 362.754 149.988 362.757 150.612V150.968ZM361.645 150.634C361.645 149.925 361.51 149.381 361.241 149.003C360.974 148.625 360.595 148.437 360.103 148.437C359.622 148.437 359.246 148.625 358.973 149.003C358.704 149.378 358.566 149.91 358.56 150.599V150.968C358.56 151.671 358.696 152.214 358.969 152.598C359.244 152.982 359.625 153.174 360.111 153.174C360.604 153.174 360.981 152.986 361.245 152.611C361.512 152.236 361.645 151.688 361.645 150.968V150.634Z" fill="#767676"/>
<path d="M367.925 151.671C367.925 152.406 367.758 152.994 367.424 153.433C367.09 153.87 366.642 154.088 366.079 154.088C365.558 154.088 365.14 153.917 364.827 153.574V155.828H363.759V149.245H364.743L364.787 149.729C365.101 149.348 365.527 149.157 366.066 149.157C366.646 149.157 367.1 149.374 367.428 149.808C367.759 150.238 367.925 150.837 367.925 151.605V151.671ZM366.861 151.579C366.861 151.104 366.766 150.728 366.576 150.449C366.388 150.171 366.119 150.032 365.767 150.032C365.331 150.032 365.017 150.212 364.827 150.572V152.682C365.02 153.051 365.336 153.235 365.776 153.235C366.116 153.235 366.381 153.099 366.571 152.827C366.765 152.551 366.861 152.135 366.861 151.579Z" fill="#767676"/>
<path d="M370.17 148.089V149.245H371.01V150.036H370.17V152.69C370.17 152.872 370.206 153.004 370.276 153.086C370.349 153.165 370.478 153.205 370.663 153.205C370.786 153.205 370.91 153.19 371.036 153.161V153.987C370.793 154.054 370.559 154.088 370.333 154.088C369.513 154.088 369.103 153.635 369.103 152.73V150.036H368.32V149.245H369.103V148.089H370.17Z" fill="#767676"/>
<path d="M393.092 147.602L394.938 152.506L396.779 147.602H398.216V154H397.108V151.891L397.218 149.069L395.329 154H394.533L392.648 149.074L392.758 151.891V154H391.65V147.602H393.092Z" fill="#767676"/>
<path d="M401.525 154.088C400.848 154.088 400.299 153.875 399.877 153.451C399.458 153.023 399.249 152.455 399.249 151.746V151.614C399.249 151.139 399.339 150.716 399.521 150.344C399.706 149.969 399.963 149.677 400.294 149.469C400.625 149.261 400.995 149.157 401.402 149.157C402.049 149.157 402.549 149.364 402.9 149.777C403.255 150.19 403.432 150.774 403.432 151.53V151.961H400.325C400.357 152.354 400.488 152.664 400.716 152.893C400.948 153.121 401.238 153.235 401.586 153.235C402.076 153.235 402.474 153.038 402.782 152.642L403.357 153.191C403.167 153.476 402.912 153.697 402.593 153.855C402.276 154.01 401.92 154.088 401.525 154.088ZM401.397 150.014C401.104 150.014 400.867 150.117 400.686 150.322C400.507 150.527 400.393 150.812 400.343 151.179H402.377V151.1C402.354 150.742 402.259 150.473 402.092 150.291C401.925 150.106 401.693 150.014 401.397 150.014Z" fill="#767676"/>
<path d="M405.256 149.245L405.287 149.794C405.638 149.37 406.1 149.157 406.671 149.157C407.661 149.157 408.165 149.724 408.183 150.858V154H407.115V150.919C407.115 150.618 407.049 150.395 406.917 150.251C406.788 150.105 406.576 150.032 406.28 150.032C405.849 150.032 405.528 150.227 405.317 150.616V154H404.25V149.245H405.256Z" fill="#767676"/>
<path d="M412.155 153.534C411.842 153.903 411.396 154.088 410.819 154.088C410.304 154.088 409.913 153.937 409.646 153.635C409.382 153.333 409.25 152.897 409.25 152.326V149.245H410.318V152.312C410.318 152.916 410.569 153.218 411.07 153.218C411.588 153.218 411.938 153.032 412.12 152.66V149.245H413.188V154H412.182L412.155 153.534Z" fill="#767676"/>
<path d="M436.533 151.917C436.468 152.6 436.216 153.133 435.777 153.517C435.337 153.897 434.753 154.088 434.023 154.088C433.514 154.088 433.064 153.968 432.674 153.728C432.288 153.484 431.989 153.14 431.778 152.695C431.567 152.25 431.457 151.732 431.448 151.144V150.546C431.448 149.942 431.555 149.411 431.769 148.951C431.983 148.491 432.289 148.136 432.688 147.887C433.089 147.638 433.552 147.514 434.076 147.514C434.782 147.514 435.351 147.706 435.781 148.089C436.212 148.473 436.462 149.015 436.533 149.715H435.425C435.373 149.255 435.238 148.924 435.021 148.722C434.807 148.517 434.492 148.415 434.076 148.415C433.593 148.415 433.221 148.592 432.96 148.946C432.702 149.298 432.57 149.815 432.564 150.498V151.064C432.564 151.756 432.688 152.283 432.934 152.646C433.183 153.01 433.546 153.191 434.023 153.191C434.46 153.191 434.788 153.093 435.008 152.897C435.228 152.701 435.367 152.374 435.425 151.917H436.533Z" fill="#767676"/>
<path d="M438.765 148.089V149.245H439.604V150.036H438.765V152.69C438.765 152.872 438.8 153.004 438.871 153.086C438.944 153.165 439.073 153.205 439.257 153.205C439.38 153.205 439.505 153.19 439.631 153.161V153.987C439.388 154.054 439.153 154.088 438.928 154.088C438.107 154.088 437.697 153.635 437.697 152.73V150.036H436.915V149.245H437.697V148.089H438.765Z" fill="#767676"/>
<path d="M442.914 150.221C442.773 150.197 442.628 150.186 442.479 150.186C441.989 150.186 441.66 150.373 441.49 150.748V154H440.422V149.245H441.441L441.468 149.777C441.726 149.364 442.083 149.157 442.54 149.157C442.692 149.157 442.818 149.178 442.918 149.219L442.914 150.221Z" fill="#767676"/>
<path d="M444.724 154H443.656V147.25H444.724V154Z" fill="#767676"/>
<path d="M484.506 70V65.0234H485.976C486.415 65.0234 486.805 65.1214 487.145 65.3174C487.486 65.5133 487.751 65.7913 487.938 66.1514C488.124 66.5114 488.218 66.9238 488.218 67.3887V67.6382C488.218 68.1099 488.123 68.5246 487.934 68.8823C487.747 69.2401 487.479 69.5158 487.131 69.7095C486.785 69.9032 486.387 70 485.938 70H484.506ZM485.371 65.7207V69.3096H485.935C486.388 69.3096 486.736 69.1683 486.977 68.8857C487.221 68.6009 487.345 68.193 487.35 67.6621V67.3853C487.35 66.8452 487.232 66.4328 486.998 66.1479C486.763 65.8631 486.422 65.7207 485.976 65.7207H485.371Z" fill="#767676"/>
<path d="M490.627 70.0684C490.101 70.0684 489.674 69.9032 489.346 69.5728C489.02 69.2401 488.857 68.798 488.857 68.2466V68.144C488.857 67.7749 488.928 67.4456 489.069 67.1562C489.212 66.8646 489.413 66.6379 489.67 66.4761C489.928 66.3143 490.215 66.2334 490.532 66.2334C491.035 66.2334 491.424 66.394 491.697 66.7153C491.973 67.0366 492.111 67.4912 492.111 68.0791V68.4141H489.694C489.719 68.7194 489.821 68.9609 489.999 69.1387C490.179 69.3164 490.404 69.4053 490.675 69.4053C491.056 69.4053 491.366 69.2515 491.605 68.9438L492.053 69.3711C491.905 69.5921 491.706 69.7642 491.458 69.8872C491.212 70.008 490.935 70.0684 490.627 70.0684ZM490.528 66.8999C490.3 66.8999 490.116 66.9797 489.975 67.1392C489.836 67.2987 489.747 67.5208 489.708 67.8057H491.291V67.7441C491.272 67.4661 491.198 67.2565 491.068 67.1152C490.938 66.9717 490.758 66.8999 490.528 66.8999Z" fill="#767676"/>
<path d="M493.642 70H492.812V64.75H493.642V70Z" fill="#767676"/>
<path d="M515.415 67.7783H513.371V69.3096H515.76V70H512.506V65.0234H515.736V65.7207H513.371V67.0947H515.415V67.7783Z" fill="#767676"/>
<path d="M517.154 66.3018L517.178 66.729C517.452 66.3986 517.811 66.2334 518.255 66.2334C519.025 66.2334 519.417 66.6743 519.431 67.5562V70H518.6V67.604C518.6 67.3693 518.549 67.1961 518.446 67.0845C518.346 66.9705 518.181 66.9136 517.951 66.9136C517.616 66.9136 517.366 67.0651 517.202 67.3682V70H516.372V66.3018H517.154Z" fill="#767676"/>
<path d="M520.125 68.1235C520.125 67.5539 520.257 67.097 520.521 66.7529C520.785 66.4066 521.14 66.2334 521.584 66.2334C521.976 66.2334 522.293 66.3701 522.534 66.6436V64.75H523.365V70H522.613L522.572 69.6172C522.323 69.918 521.992 70.0684 521.577 70.0684C521.144 70.0684 520.793 69.894 520.524 69.5454C520.258 69.1968 520.125 68.7228 520.125 68.1235ZM520.955 68.1953C520.955 68.5713 521.027 68.8652 521.17 69.0771C521.316 69.2868 521.522 69.3916 521.789 69.3916C522.129 69.3916 522.377 69.2401 522.534 68.937V67.3579C522.382 67.0617 522.135 66.9136 521.796 66.9136C521.527 66.9136 521.32 67.0207 521.174 67.2349C521.028 67.4468 520.955 67.7669 520.955 68.1953Z" fill="#767676"/>
<path d="M486.418 42H485.557V37.0234H486.418V42Z" fill="#767676"/>
<path d="M488.172 38.3018L488.196 38.729C488.469 38.3986 488.828 38.2334 489.272 38.2334C490.043 38.2334 490.435 38.6743 490.448 39.5562V42H489.618V39.604C489.618 39.3693 489.566 39.1961 489.464 39.0845C489.364 38.9705 489.198 38.9136 488.968 38.9136C488.633 38.9136 488.384 39.0651 488.22 39.3682V42H487.389V38.3018H488.172Z" fill="#767676"/>
<path d="M493.371 40.9951C493.371 40.847 493.309 40.7342 493.186 40.6567C493.065 40.5793 492.864 40.5109 492.581 40.4517C492.299 40.3924 492.063 40.3172 491.874 40.2261C491.459 40.0256 491.251 39.735 491.251 39.3545C491.251 39.0355 491.386 38.7689 491.655 38.5547C491.924 38.3405 492.265 38.2334 492.68 38.2334C493.122 38.2334 493.479 38.3428 493.75 38.5615C494.023 38.7803 494.16 39.064 494.16 39.4126H493.33C493.33 39.2531 493.27 39.1209 493.152 39.0161C493.033 38.909 492.876 38.8555 492.68 38.8555C492.498 38.8555 492.349 38.8976 492.232 38.9819C492.118 39.0662 492.062 39.179 492.062 39.3203C492.062 39.4479 492.115 39.547 492.222 39.6177C492.329 39.6883 492.546 39.7601 492.872 39.833C493.197 39.9036 493.453 39.9891 493.637 40.0894C493.824 40.1873 493.962 40.3058 494.051 40.4448C494.142 40.5838 494.188 40.7524 494.188 40.9507C494.188 41.2834 494.05 41.5534 493.774 41.7607C493.498 41.9658 493.137 42.0684 492.69 42.0684C492.387 42.0684 492.117 42.0137 491.88 41.9043C491.643 41.7949 491.459 41.6445 491.327 41.4531C491.194 41.2617 491.128 41.0555 491.128 40.8345H491.935C491.946 41.0304 492.021 41.182 492.157 41.2891C492.294 41.3939 492.475 41.4463 492.701 41.4463C492.919 41.4463 493.086 41.4053 493.2 41.3232C493.314 41.2389 493.371 41.1296 493.371 40.9951Z" fill="#767676"/>
<path d="M513.457 42H512.596V39.7886H510.371V42H509.506V37.0234H510.371V39.0947H512.596V37.0234H513.457V42Z" fill="#767676"/>
<path d="M513.747 40.1167C513.747 39.7544 513.818 39.4285 513.962 39.1392C514.105 38.8475 514.307 38.6242 514.567 38.4692C514.827 38.312 515.125 38.2334 515.462 38.2334C515.961 38.2334 516.366 38.394 516.676 38.7153C516.988 39.0366 517.157 39.4627 517.182 39.9937L517.185 40.1885C517.185 40.5531 517.114 40.8789 516.973 41.166C516.834 41.4531 516.634 41.6753 516.372 41.8325C516.112 41.9897 515.811 42.0684 515.469 42.0684C514.947 42.0684 514.529 41.8952 514.215 41.5488C513.903 41.2002 513.747 40.7365 513.747 40.1577V40.1167ZM514.577 40.1885C514.577 40.569 514.656 40.8675 514.813 41.084C514.97 41.2982 515.189 41.4053 515.469 41.4053C515.75 41.4053 515.967 41.2959 516.122 41.0771C516.279 40.8584 516.358 40.5382 516.358 40.1167C516.358 39.743 516.277 39.4468 516.115 39.228C515.956 39.0093 515.738 38.8999 515.462 38.8999C515.191 38.8999 514.976 39.0081 514.816 39.2246C514.657 39.4388 514.577 39.7601 514.577 40.1885Z" fill="#767676"/>
<path d="M518.168 38.3018L518.192 38.688C518.452 38.3849 518.808 38.2334 519.259 38.2334C519.753 38.2334 520.092 38.4225 520.274 38.8008C520.543 38.4225 520.921 38.2334 521.409 38.2334C521.817 38.2334 522.12 38.3462 522.318 38.5718C522.518 38.7974 522.621 39.13 522.625 39.5698V42H521.795V39.5938C521.795 39.359 521.744 39.187 521.641 39.0776C521.539 38.9683 521.369 38.9136 521.132 38.9136C520.943 38.9136 520.788 38.9648 520.667 39.0674C520.549 39.1676 520.465 39.2998 520.417 39.4639L520.421 42H519.59V39.5664C519.579 39.1312 519.357 38.9136 518.924 38.9136C518.591 38.9136 518.355 39.0492 518.216 39.3203V42H517.386V38.3018H518.168Z" fill="#767676"/>
<path d="M524.607 42.0684C524.081 42.0684 523.653 41.9032 523.325 41.5728C522.999 41.2401 522.836 40.798 522.836 40.2466V40.144C522.836 39.7749 522.907 39.4456 523.048 39.1562C523.192 38.8646 523.392 38.6379 523.65 38.4761C523.907 38.3143 524.194 38.2334 524.511 38.2334C525.015 38.2334 525.403 38.394 525.677 38.7153C525.952 39.0366 526.09 39.4912 526.09 40.0791V40.4141H523.674C523.699 40.7194 523.8 40.9609 523.978 41.1387C524.158 41.3164 524.384 41.4053 524.655 41.4053C525.035 41.4053 525.345 41.2515 525.584 40.9438L526.032 41.3711C525.884 41.5921 525.686 41.7642 525.438 41.8872C525.191 42.008 524.915 42.0684 524.607 42.0684ZM524.508 38.8999C524.28 38.8999 524.095 38.9797 523.954 39.1392C523.815 39.2987 523.726 39.5208 523.688 39.8057H525.27V39.7441C525.252 39.4661 525.178 39.2565 525.048 39.1152C524.918 38.9717 524.738 38.8999 524.508 38.8999Z" fill="#767676"/>
<path d="M542.67 64.1509V66H541.805V61.0234H543.709C544.265 61.0234 544.706 61.1681 545.032 61.4575C545.36 61.7469 545.524 62.1297 545.524 62.606C545.524 63.0936 545.363 63.473 545.042 63.7441C544.723 64.0153 544.275 64.1509 543.699 64.1509H542.67ZM542.67 63.457H543.709C544.017 63.457 544.251 63.3853 544.413 63.2417C544.575 63.0959 544.656 62.8862 544.656 62.6128C544.656 62.3439 544.574 62.1297 544.41 61.9702C544.246 61.8084 544.02 61.7253 543.733 61.7207H542.67V63.457Z" fill="#767676"/>
<path d="M546.009 64.1235C546.009 63.5493 546.144 63.0913 546.413 62.7495C546.684 62.4054 547.043 62.2334 547.489 62.2334C547.911 62.2334 548.242 62.3804 548.484 62.6743L548.521 62.3018H549.27V65.8872C549.27 66.3726 549.118 66.7554 548.815 67.0356C548.515 67.3159 548.108 67.4561 547.595 67.4561C547.324 67.4561 547.059 67.3991 546.799 67.2852C546.541 67.1735 546.345 67.0265 546.211 66.8442L546.604 66.3452C546.859 66.6483 547.174 66.7998 547.547 66.7998C547.823 66.7998 548.041 66.7246 548.2 66.5742C548.36 66.4261 548.439 66.2074 548.439 65.918V65.6685C548.2 65.9351 547.881 66.0684 547.482 66.0684C547.049 66.0684 546.695 65.8963 546.419 65.5522C546.146 65.2082 546.009 64.7319 546.009 64.1235ZM546.836 64.1953C546.836 64.5667 546.912 64.8595 547.062 65.0737C547.215 65.2856 547.425 65.3916 547.694 65.3916C548.029 65.3916 548.278 65.248 548.439 64.9609V63.334C548.282 63.0537 548.036 62.9136 547.701 62.9136C547.428 62.9136 547.215 63.0218 547.062 63.2383C546.912 63.4548 546.836 63.7738 546.836 64.1953Z" fill="#767676"/>
<path d="M539.17 72V67.0234H540.64C541.079 67.0234 541.469 67.1214 541.809 67.3174C542.15 67.5133 542.415 67.7913 542.602 68.1514C542.788 68.5114 542.882 68.9238 542.882 69.3887V69.6382C542.882 70.1099 542.787 70.5246 542.598 70.8823C542.411 71.2401 542.144 71.5158 541.795 71.7095C541.449 71.9032 541.051 72 540.602 72H539.17ZM540.035 67.7207V71.3096H540.599C541.052 71.3096 541.4 71.1683 541.641 70.8857C541.885 70.6009 542.009 70.193 542.014 69.6621V69.3853C542.014 68.8452 541.896 68.4328 541.662 68.1479C541.427 67.8631 541.086 67.7207 540.64 67.7207H540.035Z" fill="#767676"/>
<path d="M546.912 70.855L547.5 68.3018H548.31L547.301 72H546.618L545.825 69.4604L545.045 72H544.362L543.35 68.3018H544.16L544.758 70.8276L545.517 68.3018H546.143L546.912 70.855Z" fill="#767676"/>
<path d="M549.636 68.3018L549.66 68.729C549.933 68.3986 550.292 68.2334 550.736 68.2334C551.507 68.2334 551.898 68.6743 551.912 69.5562V72H551.082V69.604C551.082 69.3693 551.03 69.1961 550.928 69.0845C550.827 68.9705 550.662 68.9136 550.432 68.9136C550.097 68.9136 549.848 69.0651 549.684 69.3682V72H548.853V68.3018H549.636Z" fill="#767676"/>
<path d="M542.67 36.1509V38H541.805V33.0234H543.709C544.265 33.0234 544.706 33.1681 545.032 33.4575C545.36 33.7469 545.524 34.1297 545.524 34.606C545.524 35.0936 545.363 35.473 545.042 35.7441C544.723 36.0153 544.275 36.1509 543.699 36.1509H542.67ZM542.67 35.457H543.709C544.017 35.457 544.251 35.3853 544.413 35.2417C544.575 35.0959 544.656 34.8862 544.656 34.6128C544.656 34.3439 544.574 34.1297 544.41 33.9702C544.246 33.8084 544.02 33.7253 543.733 33.7207H542.67V35.457Z" fill="#767676"/>
<path d="M546.009 36.1235C546.009 35.5493 546.144 35.0913 546.413 34.7495C546.684 34.4054 547.043 34.2334 547.489 34.2334C547.911 34.2334 548.242 34.3804 548.484 34.6743L548.521 34.3018H549.27V37.8872C549.27 38.3726 549.118 38.7554 548.815 39.0356C548.515 39.3159 548.108 39.4561 547.595 39.4561C547.324 39.4561 547.059 39.3991 546.799 39.2852C546.541 39.1735 546.345 39.0265 546.211 38.8442L546.604 38.3452C546.859 38.6483 547.174 38.7998 547.547 38.7998C547.823 38.7998 548.041 38.7246 548.2 38.5742C548.36 38.4261 548.439 38.2074 548.439 37.918V37.6685C548.2 37.9351 547.881 38.0684 547.482 38.0684C547.049 38.0684 546.695 37.8963 546.419 37.5522C546.146 37.2082 546.009 36.7319 546.009 36.1235ZM546.836 36.1953C546.836 36.5667 546.912 36.8595 547.062 37.0737C547.215 37.2856 547.425 37.3916 547.694 37.3916C548.029 37.3916 548.278 37.248 548.439 36.9609V35.334C548.282 35.0537 548.036 34.9136 547.701 34.9136C547.428 34.9136 547.215 35.0218 547.062 35.2383C546.912 35.4548 546.836 35.7738 546.836 36.1953Z" fill="#767676"/>
<path d="M545.391 39.0234V42.3491C545.391 42.8778 545.221 43.297 544.881 43.6069C544.544 43.9146 544.094 44.0684 543.531 44.0684C542.962 44.0684 542.509 43.9168 542.174 43.6138C541.839 43.3084 541.672 42.8857 541.672 42.3457V39.0234H542.533V42.3525C542.533 42.6852 542.618 42.9393 542.786 43.1147C542.955 43.2902 543.203 43.3779 543.531 43.3779C544.197 43.3779 544.529 43.027 544.529 42.3252V39.0234H545.391Z" fill="#767676"/>
<path d="M549.475 42.1885C549.475 42.7604 549.345 43.2173 549.085 43.5591C548.826 43.8986 548.477 44.0684 548.04 44.0684C547.634 44.0684 547.309 43.9351 547.065 43.6685V45.4219H546.235V40.3018H547L547.035 40.6777C547.278 40.3815 547.61 40.2334 548.029 40.2334C548.48 40.2334 548.834 40.402 549.089 40.7393C549.346 41.0742 549.475 41.5402 549.475 42.1372V42.1885ZM548.648 42.1167C548.648 41.7476 548.574 41.4548 548.426 41.2383C548.28 41.0218 548.07 40.9136 547.797 40.9136C547.457 40.9136 547.214 41.0537 547.065 41.334V42.9746C547.216 43.2617 547.462 43.4053 547.804 43.4053C548.068 43.4053 548.274 43.2993 548.422 43.0874C548.573 42.8732 548.648 42.5496 548.648 42.1167Z" fill="#767676"/>
<path d="M54.5327 151.917C54.4683 152.6 54.2163 153.133 53.7769 153.517C53.3374 153.897 52.7529 154.088 52.0234 154.088C51.5137 154.088 51.064 153.968 50.6743 153.728C50.2876 153.484 49.9888 153.14 49.7778 152.695C49.5669 152.25 49.457 151.732 49.4482 151.144V150.546C49.4482 149.942 49.5552 149.411 49.769 148.951C49.9829 148.491 50.2891 148.136 50.6875 147.887C51.0889 147.638 51.5518 147.514 52.0762 147.514C52.7822 147.514 53.3506 147.706 53.7812 148.089C54.2119 148.473 54.4624 149.015 54.5327 149.715H53.4253C53.3726 149.255 53.2378 148.924 53.021 148.722C52.8071 148.517 52.4922 148.415 52.0762 148.415C51.5928 148.415 51.2207 148.592 50.96 148.946C50.7021 149.298 50.5703 149.815 50.5645 150.498V151.064C50.5645 151.756 50.6875 152.283 50.9336 152.646C51.1826 153.01 51.5459 153.191 52.0234 153.191C52.46 153.191 52.7881 153.093 53.0078 152.897C53.2275 152.701 53.3667 152.374 53.4253 151.917H54.5327Z" fill="#767676"/>
<path d="M56.7651 148.089V149.245H57.6045V150.036H56.7651V152.69C56.7651 152.872 56.8003 153.004 56.8706 153.086C56.9438 153.165 57.0728 153.205 57.2573 153.205C57.3804 153.205 57.5049 153.19 57.6309 153.161V153.987C57.3877 154.054 57.1533 154.088 56.9277 154.088C56.1074 154.088 55.6973 153.635 55.6973 152.73V150.036H54.915V149.245H55.6973V148.089H56.7651Z" fill="#767676"/>
<path d="M60.9136 150.221C60.7729 150.197 60.6279 150.186 60.4785 150.186C59.9893 150.186 59.6597 150.373 59.4897 150.748V154H58.4219V149.245H59.4414L59.4678 149.777C59.7256 149.364 60.083 149.157 60.54 149.157C60.6924 149.157 60.8184 149.178 60.918 149.219L60.9136 150.221Z" fill="#767676"/>
<path d="M62.7241 154H61.6562V147.25H62.7241V154Z" fill="#767676"/>
<path d="M48.3901 39.1436H45.7622V41.1123H48.834V42H44.6504V35.6016H48.8032V36.498H45.7622V38.2646H48.3901V39.1436Z" fill="#353535"/>
<path d="M52.3013 40.708C52.3013 40.5176 52.2222 40.3726 52.064 40.2729C51.9087 40.1733 51.6494 40.0854 51.2861 40.0093C50.9229 39.9331 50.6196 39.8364 50.3765 39.7192C49.8433 39.4614 49.5767 39.0879 49.5767 38.5986C49.5767 38.1885 49.7495 37.8457 50.0952 37.5703C50.4409 37.2949 50.8804 37.1572 51.4136 37.1572C51.9819 37.1572 52.4404 37.2979 52.7891 37.5791C53.1406 37.8604 53.3164 38.2251 53.3164 38.6733H52.2485C52.2485 38.4683 52.1724 38.2983 52.02 38.1636C51.8677 38.0259 51.6655 37.957 51.4136 37.957C51.1792 37.957 50.9873 38.0112 50.8379 38.1196C50.6914 38.228 50.6182 38.373 50.6182 38.5547C50.6182 38.7188 50.687 38.8462 50.8247 38.937C50.9624 39.0278 51.2407 39.1201 51.6597 39.2139C52.0786 39.3047 52.4067 39.4146 52.644 39.5435C52.8843 39.6694 53.0615 39.8218 53.1758 40.0005C53.293 40.1792 53.3516 40.396 53.3516 40.6509C53.3516 41.0786 53.1743 41.4258 52.8198 41.6924C52.4653 41.9561 52.001 42.0879 51.4268 42.0879C51.0371 42.0879 50.6899 42.0176 50.3853 41.877C50.0806 41.7363 49.8433 41.543 49.6733 41.2969C49.5034 41.0508 49.4185 40.7856 49.4185 40.5015H50.4556C50.4702 40.7534 50.5654 40.9482 50.7412 41.0859C50.917 41.2207 51.1499 41.2881 51.4399 41.2881C51.7212 41.2881 51.9351 41.2354 52.0815 41.1299C52.228 41.0215 52.3013 40.8809 52.3013 40.708Z" fill="#353535"/>
<path d="M56.2388 41.2354C56.5054 41.2354 56.7266 41.1577 56.9023 41.0024C57.0781 40.8472 57.1719 40.6553 57.1836 40.4268H58.1899C58.1782 40.7227 58.0859 40.9995 57.9131 41.2573C57.7402 41.5122 57.5059 41.7144 57.21 41.8638C56.9141 42.0132 56.5947 42.0879 56.252 42.0879C55.5869 42.0879 55.0596 41.8726 54.6699 41.4419C54.2803 41.0112 54.0854 40.4165 54.0854 39.6577V39.5479C54.0854 38.8242 54.2788 38.2456 54.6655 37.812C55.0522 37.3755 55.5796 37.1572 56.2476 37.1572C56.813 37.1572 57.2729 37.3228 57.6274 37.6538C57.9849 37.9819 58.1724 38.4141 58.1899 38.9502H57.1836C57.1719 38.6777 57.0781 38.4536 56.9023 38.2778C56.7295 38.1021 56.5083 38.0142 56.2388 38.0142C55.8931 38.0142 55.6265 38.1401 55.439 38.3921C55.2515 38.6411 55.1562 39.0205 55.1533 39.5303V39.7017C55.1533 40.2173 55.2456 40.6025 55.4302 40.8574C55.6177 41.1094 55.8872 41.2354 56.2388 41.2354Z" fill="#353535"/>
<path d="M55.2734 65.498H53.2783V71H52.1753V65.498H50.1978V64.6016H55.2734V65.498Z" fill="#353535"/>
<path d="M58.1167 71C58.0698 70.9092 58.0288 70.7612 57.9937 70.5562C57.6538 70.9106 57.2378 71.0879 56.7456 71.0879C56.2681 71.0879 55.8784 70.9517 55.5767 70.6792C55.2749 70.4067 55.124 70.0698 55.124 69.6685C55.124 69.1616 55.3115 68.7734 55.6865 68.5039C56.0645 68.2314 56.6035 68.0952 57.3037 68.0952H57.9585V67.7832C57.9585 67.5371 57.8896 67.3408 57.752 67.1943C57.6143 67.0449 57.4048 66.9702 57.1235 66.9702C56.8804 66.9702 56.6812 67.0317 56.5259 67.1548C56.3706 67.2749 56.293 67.4287 56.293 67.6162H55.2251C55.2251 67.3555 55.3115 67.1123 55.4844 66.8867C55.6572 66.6582 55.8916 66.4795 56.1875 66.3506C56.4863 66.2217 56.8188 66.1572 57.1851 66.1572C57.7417 66.1572 58.1855 66.2979 58.5166 66.5791C58.8477 66.8574 59.0176 67.25 59.0264 67.7568V69.9014C59.0264 70.3291 59.0864 70.6704 59.2065 70.9253V71H58.1167ZM56.9434 70.231C57.1543 70.231 57.3521 70.1797 57.5366 70.0771C57.7241 69.9746 57.8647 69.8369 57.9585 69.6641V68.7676H57.3828C56.9873 68.7676 56.6899 68.8364 56.4907 68.9741C56.2915 69.1118 56.1919 69.3066 56.1919 69.5586C56.1919 69.7637 56.2593 69.9277 56.394 70.0508C56.5317 70.1709 56.7148 70.231 56.9434 70.231Z" fill="#353535"/>
<path d="M64.3174 68.6709C64.3174 69.4092 64.1519 69.9966 63.8208 70.4331C63.4927 70.8696 63.04 71.0879 62.4629 71.0879C61.9062 71.0879 61.4727 70.8872 61.1621 70.4858L61.1094 71H60.1426V64.25H61.2104V66.7021C61.5181 66.3389 61.9326 66.1572 62.4541 66.1572C63.0342 66.1572 63.4897 66.3726 63.8208 66.8032C64.1519 67.2339 64.3174 67.8359 64.3174 68.6094V68.6709ZM63.2495 68.5786C63.2495 68.063 63.1587 67.6763 62.9771 67.4185C62.7954 67.1606 62.5317 67.0317 62.186 67.0317C61.7231 67.0317 61.3979 67.2339 61.2104 67.6382V69.5981C61.4009 70.0112 61.729 70.2178 62.1948 70.2178C62.5288 70.2178 62.7866 70.0933 62.9683 69.8442C63.1499 69.5952 63.2437 69.2188 63.2495 68.7148V68.5786Z" fill="#353535"/>
<path d="M48.5327 95.917C48.4683 96.5996 48.2163 97.1328 47.7769 97.5166C47.3374 97.8975 46.7529 98.0879 46.0234 98.0879C45.5137 98.0879 45.064 97.9678 44.6743 97.7275C44.2876 97.4844 43.9888 97.1401 43.7778 96.6948C43.5669 96.2495 43.457 95.7324 43.4482 95.1436V94.5459C43.4482 93.9424 43.5552 93.4106 43.769 92.9507C43.9829 92.4907 44.2891 92.1362 44.6875 91.8872C45.0889 91.6382 45.5518 91.5137 46.0762 91.5137C46.7822 91.5137 47.3506 91.7056 47.7812 92.0894C48.2119 92.4731 48.4624 93.0151 48.5327 93.7153H47.4253C47.3726 93.2554 47.2378 92.9243 47.021 92.7222C46.8071 92.5171 46.4922 92.4146 46.0762 92.4146C45.5928 92.4146 45.2207 92.5918 44.96 92.9463C44.7021 93.2979 44.5703 93.8149 44.5645 94.4976V95.0645C44.5645 95.7559 44.6875 96.2832 44.9336 96.6465C45.1826 97.0098 45.5459 97.1914 46.0234 97.1914C46.46 97.1914 46.7881 97.0933 47.0078 96.897C47.2275 96.7007 47.3667 96.374 47.4253 95.917H48.5327Z" fill="#767676"/>
<path d="M51.7681 98C51.7212 97.9092 51.6802 97.7612 51.645 97.5562C51.3052 97.9106 50.8892 98.0879 50.397 98.0879C49.9194 98.0879 49.5298 97.9517 49.228 97.6792C48.9263 97.4067 48.7754 97.0698 48.7754 96.6685C48.7754 96.1616 48.9629 95.7734 49.3379 95.5039C49.7158 95.2314 50.2549 95.0952 50.9551 95.0952H51.6099V94.7832C51.6099 94.5371 51.541 94.3408 51.4033 94.1943C51.2656 94.0449 51.0562 93.9702 50.7749 93.9702C50.5317 93.9702 50.3325 94.0317 50.1772 94.1548C50.022 94.2749 49.9443 94.4287 49.9443 94.6162H48.8765C48.8765 94.3555 48.9629 94.1123 49.1357 93.8867C49.3086 93.6582 49.543 93.4795 49.8389 93.3506C50.1377 93.2217 50.4702 93.1572 50.8364 93.1572C51.3931 93.1572 51.8369 93.2979 52.168 93.5791C52.499 93.8574 52.6689 94.25 52.6777 94.7568V96.9014C52.6777 97.3291 52.7378 97.6704 52.8579 97.9253V98H51.7681ZM50.5947 97.231C50.8057 97.231 51.0034 97.1797 51.188 97.0771C51.3755 96.9746 51.5161 96.8369 51.6099 96.6641V95.7676H51.0342C50.6387 95.7676 50.3413 95.8364 50.1421 95.9741C49.9429 96.1118 49.8433 96.3066 49.8433 96.5586C49.8433 96.7637 49.9106 96.9277 50.0454 97.0508C50.1831 97.1709 50.3662 97.231 50.5947 97.231Z" fill="#767676"/>
<path d="M57.46 95.6709C57.46 96.4062 57.293 96.9937 56.959 97.4331C56.625 97.8696 56.1768 98.0879 55.6143 98.0879C55.0928 98.0879 54.6753 97.9165 54.3618 97.5737V99.8281H53.2939V93.2451H54.2783L54.3223 93.7285C54.6357 93.3477 55.062 93.1572 55.6011 93.1572C56.1812 93.1572 56.6353 93.374 56.9634 93.8076C57.2944 94.2383 57.46 94.8374 57.46 95.605V95.6709ZM56.3965 95.5786C56.3965 95.104 56.3013 94.7275 56.1108 94.4492C55.9233 94.1709 55.6538 94.0317 55.3022 94.0317C54.8657 94.0317 54.5522 94.2119 54.3618 94.5723V96.6816C54.5552 97.0508 54.8716 97.2354 55.311 97.2354C55.6509 97.2354 55.916 97.0991 56.1064 96.8267C56.2998 96.5513 56.3965 96.1353 56.3965 95.5786Z" fill="#767676"/>
<path d="M60.5327 96.708C60.5327 96.5176 60.4536 96.3726 60.2954 96.2729C60.1401 96.1733 59.8809 96.0854 59.5176 96.0093C59.1543 95.9331 58.8511 95.8364 58.6079 95.7192C58.0747 95.4614 57.8081 95.0879 57.8081 94.5986C57.8081 94.1885 57.981 93.8457 58.3267 93.5703C58.6724 93.2949 59.1118 93.1572 59.645 93.1572C60.2134 93.1572 60.6719 93.2979 61.0205 93.5791C61.3721 93.8604 61.5479 94.2251 61.5479 94.6733H60.48C60.48 94.4683 60.4038 94.2983 60.2515 94.1636C60.0991 94.0259 59.897 93.957 59.645 93.957C59.4106 93.957 59.2188 94.0112 59.0693 94.1196C58.9229 94.228 58.8496 94.373 58.8496 94.5547C58.8496 94.7188 58.9185 94.8462 59.0562 94.937C59.1938 95.0278 59.4722 95.1201 59.8911 95.2139C60.3101 95.3047 60.6382 95.4146 60.8755 95.5435C61.1157 95.6694 61.293 95.8218 61.4072 96.0005C61.5244 96.1792 61.583 96.396 61.583 96.6509C61.583 97.0786 61.4058 97.4258 61.0513 97.6924C60.6968 97.9561 60.2324 98.0879 59.6582 98.0879C59.2686 98.0879 58.9214 98.0176 58.6167 97.877C58.312 97.7363 58.0747 97.543 57.9048 97.2969C57.7349 97.0508 57.6499 96.7856 57.6499 96.5015H58.687C58.7017 96.7534 58.7969 96.9482 58.9727 97.0859C59.1484 97.2207 59.3813 97.2881 59.6714 97.2881C59.9526 97.2881 60.1665 97.2354 60.313 97.1299C60.4595 97.0215 60.5327 96.8809 60.5327 96.708Z" fill="#767676"/>
<path d="M64.9731 97.1123H67.8779V98H63.8613V91.6016H64.9731V97.1123Z" fill="#767676"/>
<path d="M67.9272 95.5786C67.9272 95.1128 68.0195 94.6938 68.2041 94.3218C68.3887 93.9468 68.6479 93.6597 68.9819 93.4604C69.3159 93.2583 69.6997 93.1572 70.1333 93.1572C70.7749 93.1572 71.2949 93.3638 71.6934 93.7769C72.0947 94.1899 72.3115 94.7378 72.3438 95.4204L72.3481 95.6709C72.3481 96.1396 72.2573 96.5586 72.0757 96.9277C71.897 97.2969 71.6392 97.5825 71.3022 97.7847C70.9683 97.9868 70.5815 98.0879 70.1421 98.0879C69.4712 98.0879 68.9336 97.8652 68.5293 97.4199C68.1279 96.9717 67.9272 96.3755 67.9272 95.6313V95.5786ZM68.9951 95.6709C68.9951 96.1602 69.0962 96.5439 69.2983 96.8223C69.5005 97.0977 69.7817 97.2354 70.1421 97.2354C70.5024 97.2354 70.7822 97.0947 70.9814 96.8135C71.1836 96.5322 71.2847 96.1206 71.2847 95.5786C71.2847 95.0981 71.1807 94.7173 70.9727 94.436C70.7676 94.1548 70.4878 94.0142 70.1333 94.0142C69.7847 94.0142 69.5078 94.1533 69.3027 94.4316C69.0977 94.707 68.9951 95.1201 68.9951 95.6709Z" fill="#767676"/>
<path d="M74.7046 97.2354C74.9712 97.2354 75.1924 97.1577 75.3682 97.0024C75.5439 96.8472 75.6377 96.6553 75.6494 96.4268H76.6558C76.644 96.7227 76.5518 96.9995 76.3789 97.2573C76.2061 97.5122 75.9717 97.7144 75.6758 97.8638C75.3799 98.0132 75.0605 98.0879 74.7178 98.0879C74.0527 98.0879 73.5254 97.8726 73.1357 97.4419C72.7461 97.0112 72.5513 96.4165 72.5513 95.6577V95.5479C72.5513 94.8242 72.7446 94.2456 73.1313 93.812C73.5181 93.3755 74.0454 93.1572 74.7134 93.1572C75.2788 93.1572 75.7388 93.3228 76.0933 93.6538C76.4507 93.9819 76.6382 94.4141 76.6558 94.9502H75.6494C75.6377 94.6777 75.5439 94.4536 75.3682 94.2778C75.1953 94.1021 74.9741 94.0142 74.7046 94.0142C74.3589 94.0142 74.0923 94.1401 73.9048 94.3921C73.7173 94.6411 73.6221 95.0205 73.6191 95.5303V95.7017C73.6191 96.2173 73.7114 96.6025 73.896 96.8574C74.0835 97.1094 74.353 97.2354 74.7046 97.2354Z" fill="#767676"/>
<path d="M78.5068 95.9609L78.0322 96.4487V98H76.9644V91.25H78.0322V95.1436L78.3662 94.7261L79.6802 93.2451H80.9634L79.1968 95.2271L81.1523 98H79.9175L78.5068 95.9609Z" fill="#767676"/>
<path d="M431.5 40.795L430.795 41.5L429 39.705L427.205 41.5L426.5 40.795L428.295 39L426.5 37.205L427.205 36.5L429 38.295L430.795 36.5L431.5 37.205L429.705 39L431.5 40.795ZM433 34.5C433.265 34.5 433.52 34.6054 433.707 34.7929C433.895 34.9804 434 35.2348 434 35.5V42.5C434 42.7652 433.895 43.0196 433.707 43.2071C433.52 43.3946 433.265 43.5 433 43.5H425.5C425.155 43.5 424.885 43.32 424.705 43.055L422 39L424.705 34.94C424.885 34.675 425.155 34.5 425.5 34.5H433ZM433 35.5H425.5L423.14 39L425.5 42.5H433V35.5Z" fill="#767676"/>
<path d="M430.875 92.375V94.875H422.644L424.881 92.6312L424 91.75L420.25 95.5L424 99.25L424.881 98.3625L422.644 96.125H432.125V92.375H430.875Z" fill="#353535"/>
<path d="M420.45 125.75V122H421.86L418.5 118.769L415.139 122H416.55V125.75H420.45ZM418.5 117L425 123.25H421.75V127H415.25V123.25H412L418.5 117Z" fill="#767676"/>
<path d="M70.45 125.75V122H71.8605L68.5 118.769L65.1395 122H66.55V125.75H70.45ZM68.5 117L75 123.25H71.75V127H65.25V123.25H62L68.5 117Z" fill="#767676"/>
</svg>
