<svg width="42" height="42" viewBox="0 0 42 42" fill="none" xmlns="http://www.w3.org/2000/svg">
<circle cx="21" cy="21" r="21" fill="#575757"/>
<path d="M20.5 6.625C16.8201 6.625 13.291 8.08683 10.6889 10.6889C8.08683 13.291 6.625 16.8201 6.625 20.5C6.625 24.1799 8.08683 27.709 10.6889 30.3111C13.291 32.9132 16.8201 34.375 20.5 34.375C24.1799 34.375 27.709 32.9132 30.3111 30.3111C32.9132 27.709 34.375 24.1799 34.375 20.5C34.375 19.7292 34.3133 18.9583 34.1746 18.1875C33.7583 17.4167 32.8333 17.4167 32.8333 17.4167H29.75V15.875C29.75 14.3333 28.2083 14.3333 28.2083 14.3333H25.125V12.7917C25.125 11.25 23.5833 11.25 23.5833 11.25H22.0417V8.16667C22.0417 6.625 20.5 6.625 20.5 6.625ZM16.6458 11.25C17.2591 11.25 17.8473 11.4936 18.281 11.9273C18.7147 12.361 18.9583 12.9492 18.9583 13.5625C18.9583 14.1758 18.7147 14.764 18.281 15.1977C17.8473 15.6314 17.2591 15.875 16.6458 15.875C16.0325 15.875 15.4443 15.6314 15.0106 15.1977C14.577 14.764 14.3333 14.1758 14.3333 13.5625C14.3333 12.9492 14.577 12.361 15.0106 11.9273C15.4443 11.4936 16.0325 11.25 16.6458 11.25ZM12.0208 17.4167C12.6341 17.4167 13.2223 17.6603 13.656 18.094C14.0897 18.5277 14.3333 19.1159 14.3333 19.7292C14.3333 20.3425 14.0897 20.9307 13.656 21.3644C13.2223 21.798 12.6341 22.0417 12.0208 22.0417C11.4075 22.0417 10.8193 21.798 10.3856 21.3644C9.95197 20.9307 9.70833 20.3425 9.70833 19.7292C9.70833 19.1159 9.95197 18.5277 10.3856 18.094C10.8193 17.6603 11.4075 17.4167 12.0208 17.4167V17.4167ZM19.7292 18.9583C20.3425 18.9583 20.9307 19.202 21.3644 19.6356C21.798 20.0693 22.0417 20.6575 22.0417 21.2708C22.0417 21.8841 21.798 22.4723 21.3644 22.906C20.9307 23.3397 20.3425 23.5833 19.7292 23.5833C19.1159 23.5833 18.5277 23.3397 18.094 22.906C17.6603 22.4723 17.4167 21.8841 17.4167 21.2708C17.4167 20.6575 17.6603 20.0693 18.094 19.6356C18.5277 19.202 19.1159 18.9583 19.7292 18.9583V18.9583ZM27.4375 22.0417C28.0508 22.0417 28.639 22.2853 29.0727 22.719C29.5064 23.1527 29.75 23.7409 29.75 24.3542C29.75 24.9675 29.5064 25.5557 29.0727 25.9894C28.639 26.423 28.0508 26.6667 27.4375 26.6667C26.8242 26.6667 26.236 26.423 25.8023 25.9894C25.3686 25.5557 25.125 24.9675 25.125 24.3542C25.125 23.7409 25.3686 23.1527 25.8023 22.719C26.236 22.2853 26.8242 22.0417 27.4375 22.0417ZM18.9583 26.6667C19.5716 26.6667 20.1598 26.9103 20.5935 27.344C21.0272 27.7777 21.2708 28.3659 21.2708 28.9792C21.2708 29.5925 21.0272 30.1807 20.5935 30.6143C20.1598 31.048 19.5716 31.2917 18.9583 31.2917C18.345 31.2917 17.7568 31.048 17.3231 30.6143C16.8895 30.1807 16.6458 29.5925 16.6458 28.9792C16.6458 28.3659 16.8895 27.7777 17.3231 27.344C17.7568 26.9103 18.345 26.6667 18.9583 26.6667V26.6667Z" fill="white"/>
</svg>
