<svg width="42" height="42" viewBox="0 0 42 42" fill="none" xmlns="http://www.w3.org/2000/svg">
<circle cx="21" cy="21" r="21" fill="#575757"/>
<path d="M19.6 16.8H22.4V14H19.6V16.8ZM21 32.2C14.826 32.2 9.8 27.174 9.8 21C9.8 14.826 14.826 9.8 21 9.8C27.174 9.8 32.2 14.826 32.2 21C32.2 27.174 27.174 32.2 21 32.2ZM21 7C19.1615 7 17.341 7.36212 15.6424 8.06569C13.9439 8.76925 12.4005 9.80048 11.1005 11.1005C8.475 13.726 7 17.287 7 21C7 24.713 8.475 28.274 11.1005 30.8995C12.4005 32.1995 13.9439 33.2307 15.6424 33.9343C17.341 34.6379 19.1615 35 21 35C24.713 35 28.274 33.525 30.8995 30.8995C33.525 28.274 35 24.713 35 21C35 19.1615 34.6379 17.341 33.9343 15.6424C33.2307 13.9439 32.1995 12.4005 30.8995 11.1005C29.5995 9.80048 28.0561 8.76925 26.3576 8.06569C24.659 7.36212 22.8385 7 21 7ZM19.6 28H22.4V19.6H19.6V28Z" fill="white"/>
</svg>
